<?xml version="1.0" standalone="no"?>
<!DOCTYPE svg PUBLIC "-//W3C//DTD SVG 20010904//EN"
 "http://www.w3.org/TR/2001/REC-SVG-20010904/DTD/svg10.dtd">
<svg version="1.0" xmlns="http://www.w3.org/2000/svg"
 width="4276.000000pt" height="4260.000000pt" viewBox="0 0 4276.000000 4260.000000"
 preserveAspectRatio="xMidYMid meet">

<g transform="translate(0.000000,4260.000000) scale(0.100000,-0.100000)"
fill="#000000" stroke="none">
<path d="M0 21300 l0 -21300 21380 0 21380 0 0 21300 0 21300 -21380 0 -21380
0 0 -21300z m19530 18485 c8 -14 20 -23 27 -21 7 3 15 1 18 -4 4 -6 16 -10 27
-10 12 0 18 -3 15 -7 -4 -3 -1 -13 6 -21 6 -8 12 -31 12 -51 0 -20 4 -47 9
-61 8 -23 8 -24 -9 -10 -11 8 -16 10 -12 3 9 -15 -58 -87 -73 -78 -5 3 -10 1
-10 -6 0 -8 -4 -8 -15 1 -10 9 -15 9 -15 1 0 -6 -7 -11 -15 -11 -8 0 -15 -8
-15 -17 0 -15 -2 -16 -10 -3 -5 8 -10 11 -10 5 -1 -5 -8 3 -16 18 -8 15 -20
25 -25 21 -14 -8 -49 25 -43 41 3 7 -2 15 -10 18 -9 4 -13 13 -10 22 3 8 2 15
-2 15 -5 0 -9 11 -9 25 0 14 3 25 7 25 3 0 16 20 28 45 14 30 28 45 41 45 10
0 33 9 51 20 42 25 42 25 58 -5z m525 -384 c3 -5 1 -12 -5 -16 -5 -3 -10 1
-10 9 0 18 6 21 15 7z m-129 -612 c3 -6 1 -16 -5 -22 -9 -9 -14 -8 -21 3 -9
15 -4 30 10 30 5 0 12 -5 16 -11z m-583 -143 c7 -16 -1 -26 -20 -26 -7 0 -13
9 -13 20 0 23 25 27 33 6z m150 -327 c61 -32 80 -98 42 -145 -16 -21 -29 -26
-66 -26 -25 -1 -51 2 -57 6 -16 10 -24 62 -17 107 6 36 28 56 73 68 2 1 13 -4
25 -10z m327 -378 c0 -19 -23 -35 -34 -24 -14 15 -5 43 14 43 13 0 20 -7 20
-19z m473 -57 c-4 -10 -9 -12 -15 -6 -12 12 -1 35 12 27 5 -3 6 -13 3 -21z
m-293 -49 c16 -19 3 -57 -18 -53 -18 3 -27 30 -18 54 7 18 20 18 36 -1z m178
-175 c27 -25 31 -35 25 -62 -9 -46 -23 -63 -59 -66 -65 -6 -101 65 -62 121 11
15 23 25 28 22 5 -3 11 -1 15 5 10 16 20 12 53 -20z m296 -45 c-4 -8 -10 -15
-15 -15 -5 0 -9 7 -9 15 0 8 7 15 15 15 9 0 12 -6 9 -15z m-4979 -7085 c9 -15
-14 -40 -31 -33 -22 8 -18 43 5 43 11 0 23 -5 26 -10z m105 -99 c0 -12 -20
-25 -27 -18 -7 7 6 27 18 27 5 0 9 -4 9 -9z m-410 -166 c0 -8 -7 -15 -15 -15
-16 0 -20 12 -8 23 11 12 23 8 23 -8z m248 -176 c2 -5 10 -9 17 -9 21 0 29
-68 10 -96 -9 -14 -20 -22 -25 -19 -6 4 -10 0 -11 -7 0 -7 -2 -8 -5 -2 -2 6
-17 9 -33 6 -31 -4 -42 8 -55 60 -8 37 43 93 76 82 13 -3 25 -11 26 -15z
m11124 -3361 c-15 -15 -24 -6 -16 16 5 12 10 14 17 7 8 -8 8 -14 -1 -23z
m-1066 -15 c-10 -10 -19 5 -10 18 6 11 8 11 12 0 2 -7 1 -15 -2 -18z m-11948
-329 c12 -8 22 -23 22 -33 0 -9 5 -22 11 -28 17 -17 -14 -61 -49 -69 -15 -4
-31 -10 -37 -15 -14 -10 -52 23 -65 55 -7 21 -5 35 11 66 18 34 26 40 53 40
17 0 42 -7 54 -16z m10728 -209 c-4 -24 -16 -30 -16 -7 0 12 4 22 9 22 5 0 8
-7 7 -15z m1694 -170 c0 -8 -4 -15 -10 -15 -5 0 -10 7 -10 15 0 8 5 15 10 15
6 0 10 -7 10 -15z m-1015 -71 c0 -22 -30 -26 -31 -4 -1 22 6 32 19 27 7 -2 12
-12 12 -23z m-385 -158 c0 -15 -14 -35 -21 -30 -15 9 -10 34 6 34 8 0 15 -2
15 -4z m1200 -176 c0 -19 -11 -26 -23 -14 -8 8 3 34 14 34 5 0 9 -9 9 -20z
m-691 -131 c-5 -10 -14 -19 -19 -19 -14 0 -18 23 -8 43 7 14 12 16 23 7 11 -9
12 -17 4 -31z m-11496 -4 c24 -17 19 -53 -10 -72 -19 -13 -24 -12 -42 6 -22
22 -19 47 8 68 20 15 22 15 44 -2z m9817 -10 c0 -8 -7 -15 -15 -15 -8 0 -15 7
-15 15 0 8 7 15 15 15 8 0 15 -7 15 -15z m1090 -40 c0 -8 -7 -15 -15 -15 -9 0
-12 6 -9 15 4 8 10 15 15 15 5 0 9 -7 9 -15z m885 -174 c3 -5 2 -12 -3 -15 -5
-3 -9 1 -9 9 0 17 3 19 12 6z m518 -137 c-4 -10 -9 -12 -15 -6 -12 12 -1 35
12 27 5 -3 6 -13 3 -21z m1348 -107 c-13 -13 -26 -3 -16 12 3 6 11 8 17 5 6
-4 6 -10 -1 -17z m-4711 -105 c-6 -2 -8 -8 -4 -13 3 -5 1 -9 -5 -9 -14 0 -19
23 -7 36 8 9 13 9 18 0 4 -6 3 -13 -2 -14z m3250 -311 c16 -30 12 -52 -10 -58
-11 -3 -17 -10 -14 -15 4 -6 -2 -6 -13 1 -11 6 -23 8 -26 5 -3 -3 -9 11 -13
31 -5 27 -3 40 7 46 24 15 58 10 69 -10z m1030 -256 c0 -8 -4 -15 -8 -15 -5 0
-9 7 -9 15 0 8 4 15 9 15 4 0 8 -7 8 -15z m-655 -54 c7 -12 -12 -24 -25 -16
-11 7 -4 25 10 25 5 0 11 -4 15 -9z m-2712 -223 c5 -15 -13 -58 -24 -58 -5 0
-13 9 -19 21 -9 15 -8 24 1 35 14 17 36 18 42 2z m257 -152 c0 -20 -19 -31
-32 -18 -6 6 -7 15 -4 21 10 16 36 13 36 -3z m193 -8 c8 -23 -11 -58 -28 -52
-15 6 -21 45 -8 57 11 11 30 8 36 -5z m781 -21 c-8 -21 -23 -22 -31 -1 -7 18
17 38 30 25 4 -4 5 -15 1 -24z m-218 -124 c-11 -11 -19 6 -11 24 8 17 8 17 12
0 3 -10 2 -21 -1 -24z m-956 -37 c-14 -14 -24 0 -16 21 6 15 8 15 16 3 6 -9 5
-19 0 -24z m-447 -110 c19 -15 23 -36 6 -36 -5 0 -8 -4 -4 -9 10 -17 -34 -23
-50 -7 -18 18 -19 38 -3 54 15 15 29 15 51 -2z m1614 -192 c1 -5 -2 -16 -7
-24 -12 -20 -35 2 -26 25 6 17 27 16 33 -1z m-321 -40 c-3 -7 -1 -14 3 -16 5
-2 0 -11 -9 -21 -16 -16 -19 -17 -33 -2 -25 24 -1 70 30 58 8 -3 12 -11 9 -19z
m-3798 -211 c-4 -22 -22 -20 -26 1 -2 10 3 16 13 16 10 0 15 -7 13 -17z m589
-35 c-3 -8 -6 -5 -6 6 -1 11 2 17 5 13 3 -3 4 -12 1 -19z m2223 -108 c0 -5 -5
-10 -11 -10 -5 0 -7 5 -4 10 3 6 8 10 11 10 2 0 4 -4 4 -10z m180 -5 c14 -17
4 -55 -15 -55 -16 0 -31 43 -20 59 9 15 20 14 35 -4z m-205 -41 c0 -19 -5 -29
-15 -29 -16 0 -25 28 -16 51 10 25 31 10 31 -22z m-1055 -8 c0 -3 -4 -8 -10
-11 -5 -3 -10 -1 -10 4 0 6 5 11 10 11 6 0 10 -2 10 -4z m1194 -12 c20 -8 21
-28 2 -43 -17 -14 -39 9 -30 33 7 18 7 18 28 10z m-1339 -42 c-7 -8 -35 7 -35
18 0 6 7 6 20 -2 10 -7 17 -14 15 -16z m-250 -12 c-3 -5 -12 -10 -18 -10 -7 0
-6 4 3 10 19 12 23 12 15 0z m105 -25 c0 -8 -7 -15 -15 -15 -13 0 -14 3 -3 15
16 18 18 18 18 0z m207 1 c-3 -8 1 -17 9 -20 16 -6 10 -26 -7 -26 -6 0 -7 5
-3 12 4 7 3 8 -4 4 -7 -4 -12 -13 -12 -21 0 -14 -24 -27 -34 -18 -3 4 -6 13
-6 21 0 12 3 12 15 2 13 -11 14 -10 9 5 -5 12 -4 16 3 12 6 -4 14 4 17 18 4
14 9 25 12 25 3 0 4 -6 1 -14z m-162 -26 c-20 -22 -45 -27 -45 -8 0 6 3 9 6 5
4 -3 13 0 21 8 22 23 39 18 18 -5z m295 -11 c0 -4 -8 -13 -17 -20 -15 -12 -16
-12 -10 3 3 10 2 20 -3 23 -6 4 -10 10 -10 16 0 5 9 4 20 -3 11 -7 20 -16 20
-19z m201 13 c-7 -2 -18 1 -23 6 -8 8 -4 9 13 5 13 -4 18 -8 10 -11z m-981
-23 c0 -20 -24 -26 -35 -9 -8 13 14 42 26 34 5 -3 9 -14 9 -25z m1342 11 c7
-11 19 -20 26 -20 7 0 10 -5 7 -10 -4 -6 -10 -8 -14 -6 -4 3 -13 -5 -21 -17
-12 -20 -12 -21 3 -8 10 7 17 9 17 5 0 -5 -9 -15 -21 -22 -12 -8 -18 -9 -15
-3 4 5 -3 12 -13 16 -25 8 -35 38 -21 65 14 26 36 26 52 0z m-607 0 c3 -6 -1
-7 -9 -4 -18 7 -21 14 -7 14 6 0 13 -4 16 -10z m-328 -6 c13 -4 20 -10 17 -15
-3 -5 -11 -6 -17 -2 -7 4 -25 6 -41 4 -18 -2 -26 1 -22 8 8 12 30 14 63 5z
m138 -8 c12 -12 12 -15 0 -20 -20 -7 -19 -36 0 -36 21 0 19 -17 -3 -22 -11 -3
-18 1 -18 11 -1 9 -5 25 -9 35 -6 15 -5 17 5 11 9 -5 11 -4 6 3 -4 7 -13 12
-20 12 -15 0 -17 -30 -3 -48 7 -9 7 -16 -1 -24 -9 -9 -12 -9 -12 2 0 7 -3 10
-6 7 -4 -4 -1 -13 6 -22 10 -13 9 -15 -8 -15 -12 0 -24 5 -27 10 -10 16 -36
-16 -29 -34 3 -9 14 -16 23 -16 14 0 14 -2 1 -10 -8 -5 -12 -11 -10 -14 3 -2
13 2 23 9 18 13 17 14 -2 20 -21 6 -30 35 -11 35 6 0 10 -4 10 -10 0 -15 27
-12 44 5 8 8 17 15 20 15 8 0 -6 -34 -18 -42 -6 -4 -1 -6 11 -5 12 0 19 5 17
9 -3 5 8 13 25 19 33 11 40 24 19 32 -8 3 -7 6 4 6 23 1 32 -17 18 -34 -7 -8
-7 -15 -1 -19 5 -4 13 0 18 7 4 8 18 18 31 21 19 7 22 4 22 -23 0 -23 -5 -30
-22 -33 l-23 -3 24 -14 c18 -10 25 -10 31 -1 16 26 16 -7 1 -34 -21 -37 -41
-45 -41 -17 0 12 -5 21 -11 21 -5 0 -8 -4 -5 -9 3 -5 -1 -14 -9 -21 -13 -11
-14 -10 -9 6 4 10 14 25 22 31 21 17 10 25 -40 30 -37 4 -40 3 -28 -12 8 -9
20 -13 33 -9 14 4 18 2 15 -7 -3 -8 -14 -13 -24 -11 -14 2 -15 0 -6 -6 7 -5
10 -15 7 -23 -8 -21 32 -44 51 -28 11 9 14 8 14 -3 0 -11 7 -14 25 -10 18 3
25 0 25 -11 0 -8 7 -20 15 -27 20 -17 19 -7 -5 43 -19 38 -19 42 -4 57 15 14
16 13 12 -12 -3 -16 -1 -28 4 -28 5 0 6 -4 3 -10 -3 -5 1 -10 9 -10 9 0 16 5
16 10 0 16 17 12 24 -6 3 -8 2 -13 -3 -10 -5 3 -14 -1 -21 -9 -10 -12 -10 -15
3 -15 8 0 20 7 27 15 18 22 29 19 36 -10 3 -13 9 -24 13 -23 26 3 40 -4 35
-17 -4 -8 -1 -15 5 -15 6 0 11 12 11 26 0 19 -4 25 -15 20 -16 -6 -19 3 -7 19
11 16 32 16 32 1 0 -9 9 -12 28 -9 23 3 24 2 7 -6 -19 -9 -19 -10 2 -10 12 -1
24 -9 28 -21 10 -30 24 -24 23 10 -1 16 -7 30 -14 32 -10 2 -11 7 -3 18 7 10
12 11 15 4 7 -17 44 -5 44 13 0 13 3 13 15 3 26 -22 18 -40 -14 -34 -26 6 -28
4 -24 -20 3 -14 9 -26 14 -26 5 0 6 -6 4 -12 -4 -11 15 -25 64 -45 9 -4 12 -2
7 5 -5 8 0 12 13 12 18 0 19 -3 10 -27 -11 -29 2 -46 28 -36 15 6 17 -6 4 -26
-6 -9 -11 -10 -15 -2 -4 6 -12 11 -19 11 -7 0 -5 -6 5 -16 13 -13 20 -14 38
-4 12 7 20 8 16 2 -7 -12 20 -36 33 -28 5 4 13 1 17 -5 4 -8 9 -7 15 2 7 12
10 12 21 0 11 -12 10 -12 -2 -6 -12 7 -13 6 -3 -6 10 -12 7 -21 -14 -44 -14
-17 -23 -22 -20 -12 7 19 -8 24 -17 5 -3 -7 -3 -2 0 11 4 17 2 22 -7 18 -8 -2
-13 -10 -11 -16 1 -6 -2 -11 -8 -11 -11 0 -50 40 -50 52 0 4 -4 8 -9 8 -5 0
-7 -8 -5 -17 2 -10 -5 -29 -16 -43 -14 -19 -20 -21 -20 -9 0 12 -7 15 -25 11
-23 -4 -26 -8 -25 -29 1 -5 9 -7 20 -5 10 2 25 -7 34 -20 18 -26 20 -38 6 -38
-5 0 -10 9 -10 20 0 17 -2 19 -14 8 -8 -7 -10 -14 -5 -16 5 -2 -1 -17 -13 -33
-16 -22 -27 -28 -42 -23 -12 4 -18 3 -14 -1 4 -4 3 -17 -3 -27 -8 -15 -8 -24
3 -33 11 -11 18 -8 38 12 26 27 25 27 -30 5 -13 -5 -13 -3 -1 11 7 9 19 17 26
17 6 0 17 10 23 23 8 16 11 18 11 5 1 -9 8 -24 17 -32 14 -15 14 -17 0 -32 -9
-8 -16 -18 -16 -22 0 -4 14 8 32 26 25 25 30 34 20 44 -14 14 -16 38 -3 38 5
0 12 -8 15 -18 4 -13 15 -18 36 -16 17 1 30 -3 30 -8 0 -6 -7 -8 -15 -4 -17 6
-18 4 -9 -18 5 -12 11 -13 24 -6 13 7 21 7 25 0 3 -5 14 -10 24 -10 10 0 21
-9 24 -19 3 -14 -2 -21 -19 -25 -13 -4 -24 -13 -24 -21 0 -19 5 -19 26 3 15
15 17 15 12 1 -4 -9 -1 -22 5 -29 9 -10 9 -12 -3 -8 -60 21 -60 21 -61 -9 -1
-15 0 -32 1 -38 1 -5 3 -16 3 -22 0 -7 4 -13 8 -13 5 0 6 -7 3 -15 -5 -11 1
-15 19 -15 14 0 27 -6 30 -12 2 -7 8 -9 13 -5 5 4 3 12 -4 16 -12 7 -12 44 -1
56 3 3 14 -4 24 -15 10 -11 13 -20 7 -20 -6 0 -13 6 -15 13 -3 7 -6 6 -6 -5
-1 -9 8 -20 19 -23 23 -7 27 -25 5 -25 -18 0 -20 -20 -2 -21 10 0 10 -2 0 -6
-18 -7 -16 -33 2 -33 8 0 20 7 27 15 25 30 52 55 55 51 2 -2 -10 -18 -27 -36
-16 -18 -30 -39 -30 -46 0 -8 -11 -19 -24 -24 -16 -6 -23 -15 -21 -27 2 -10 4
-21 4 -25 1 -5 6 -7 12 -5 6 1 14 -4 16 -11 3 -9 -2 -13 -13 -12 -44 5 -57
-14 -35 -48 6 -10 11 -9 22 4 12 16 12 17 -3 11 -10 -3 -18 -2 -18 2 0 15 29
21 56 10 15 -5 35 -7 45 -4 11 4 19 2 19 -4 0 -14 -43 -26 -48 -12 -4 13 -32
15 -32 2 0 -5 5 -11 11 -13 8 -3 8 -10 -2 -26 -16 -25 -31 -30 -23 -7 4 8 1
15 -5 15 -6 0 -11 -5 -11 -11 0 -5 -6 -7 -12 -4 -7 4 -5 0 5 -8 9 -8 17 -21
17 -30 0 -9 5 -19 11 -23 8 -4 9 0 4 15 -3 11 -2 21 3 21 15 0 24 -32 12 -40
-6 -4 -8 -14 -4 -23 3 -10 1 -17 -5 -17 -6 0 -11 7 -11 15 0 16 -38 40 -48 31
-3 -4 4 -13 16 -22 12 -8 22 -20 22 -25 0 -6 -7 -3 -16 5 -21 21 -35 20 -27
-1 6 -16 3 -15 -17 2 l-23 20 7 -25 c3 -14 3 -19 0 -12 -9 19 -24 14 -24 -8 0
-11 -4 -20 -10 -20 -5 0 -10 5 -10 12 0 6 -3 9 -6 6 -3 -4 1 -17 8 -30 8 -12
14 -38 13 -55 -1 -35 2 -38 23 -25 9 6 10 16 3 34 -8 21 -6 31 10 49 10 12 19
18 19 13 0 -5 6 -2 13 6 7 8 26 16 42 18 17 2 31 7 33 12 4 10 32 2 32 -10 0
-4 -13 -10 -30 -13 -21 -5 -30 -12 -30 -27 0 -11 5 -20 10 -20 6 0 10 -8 10
-19 0 -12 -9 -20 -25 -23 -14 -3 -25 -1 -25 3 0 5 7 9 15 9 16 0 20 12 9 23
-8 8 -44 -31 -44 -47 0 -6 -4 -5 -9 3 -7 11 -10 9 -16 -7 -3 -12 -9 -21 -13
-20 -4 1 -15 -2 -24 -6 -21 -10 -14 -28 7 -19 8 3 15 0 15 -6 0 -6 -5 -10 -12
-8 -6 1 -13 -7 -15 -18 -3 -16 -2 -17 6 -5 12 17 14 10 5 -14 -5 -14 -8 -14
-30 1 -13 8 -24 11 -24 5 0 -6 4 -12 9 -14 4 -1 0 -11 -9 -21 -16 -16 -17 -15
-16 15 1 18 5 39 9 46 5 7 5 21 2 32 -4 11 -2 20 4 20 6 0 11 4 11 10 0 5 -7
7 -16 3 -13 -5 -15 -2 -9 15 4 14 2 22 -5 22 -6 0 -10 -12 -9 -27 1 -16 1 -37
0 -48 -1 -16 -3 -17 -10 -6 -8 12 -11 12 -23 0 -8 -8 -13 -20 -10 -27 2 -7 -4
-19 -13 -26 -16 -12 -16 -13 0 -29 20 -21 7 -22 -19 -2 -15 11 -17 17 -7 29 9
11 9 16 0 22 -8 4 -9 3 -5 -4 5 -8 -2 -11 -22 -8 -29 3 -30 2 -21 -28 11 -39
12 -36 -6 -36 -8 0 -15 -4 -15 -10 0 -14 27 -12 33 3 4 9 8 8 16 -3 7 -11 7
-16 -2 -19 -7 -2 -16 -10 -20 -18 -7 -12 -11 -11 -22 4 -23 31 -27 7 -4 -31
18 -30 18 -36 5 -36 -10 0 -13 6 -9 18 3 9 2 13 -2 9 -5 -4 -15 3 -22 15 -12
20 -13 21 -8 2 3 -11 -2 -29 -11 -40 -8 -10 -13 -14 -10 -8 3 6 -2 11 -10 11
-11 0 -9 -6 7 -23 27 -29 18 -67 -14 -62 -17 2 -22 9 -20 28 1 14 -1 19 -3 13
-7 -16 -31 -17 -36 -1 -3 7 -7 5 -11 -6 -4 -11 -3 -15 4 -10 7 4 10 1 7 -7 -3
-8 -13 -13 -22 -13 -10 1 -15 -1 -12 -4 3 -3 0 -12 -7 -20 -10 -13 -9 -14 7
-5 10 6 28 8 39 5 16 -4 19 -1 14 11 -4 11 -2 14 8 11 13 -6 15 -28 2 -41 -12
-11 -37 -12 -37 -1 0 5 -6 8 -12 6 -7 -3 -13 -15 -13 -29 0 -17 -5 -24 -18
-23 -14 2 -15 -1 -6 -12 6 -8 16 -11 22 -7 7 4 8 0 4 -11 -4 -10 -7 -22 -7
-27 0 -6 -5 -7 -12 -3 -8 5 -9 2 -5 -9 10 -26 1 -20 -21 14 l-19 31 1 -30 c0
-17 4 -28 7 -26 4 2 10 -4 13 -13 4 -10 4 -14 0 -11 -3 4 -17 -5 -30 -19 -13
-14 -24 -23 -24 -19 0 4 -12 -5 -27 -19 -15 -14 -31 -25 -34 -25 -3 0 -5 -10
-5 -22 1 -13 -4 -31 -12 -40 -16 -20 -11 -54 8 -50 10 2 10 -2 -2 -20 -21 -31
-45 -34 -53 -7 -5 15 -2 25 9 31 9 5 16 14 16 21 0 7 -4 6 -10 -3 -7 -10 -10
-11 -10 -2 0 7 7 15 15 18 8 4 15 10 15 16 0 5 -5 6 -11 2 -7 -4 -9 1 -7 12 2
11 10 18 16 16 7 -1 12 5 12 13 0 23 -18 18 -46 -12 -18 -20 -21 -28 -12 -34
10 -6 10 -11 2 -19 -7 -7 -9 -24 -4 -45 5 -23 4 -36 -4 -39 -17 -7 16 -27 34
-20 11 4 12 2 4 -6 -9 -9 -19 -8 -42 4 -37 19 -51 41 -45 70 3 19 3 19 -5 2
-8 -18 -9 -18 -30 4 -17 19 -22 20 -22 8 0 -9 -3 -23 -6 -31 -4 -11 1 -13 20
-10 21 4 26 1 26 -16 0 -12 -6 -21 -15 -21 -9 0 -12 6 -9 15 5 11 2 13 -10 9
-9 -4 -14 -9 -11 -12 3 -3 -7 -12 -22 -19 -16 -7 -20 -11 -10 -8 10 3 17 -1
17 -10 0 -8 -5 -15 -11 -15 -6 0 -9 -7 -5 -15 3 -8 1 -15 -4 -15 -17 0 -11
-18 8 -23 9 -2 -2 -4 -25 -4 -23 1 -39 5 -37 9 3 4 12 8 20 8 8 0 13 4 10 9
-3 4 -17 6 -31 3 -22 -4 -25 -9 -21 -33 3 -23 1 -29 -15 -29 -21 0 -26 -16 -7
-22 7 -3 2 -7 -10 -10 -17 -5 -22 -2 -22 13 0 11 7 22 15 25 8 4 12 10 9 15
-3 5 3 6 12 2 12 -4 15 -3 10 5 -4 7 -13 12 -20 12 -18 0 -48 -47 -41 -63 4
-7 -1 -3 -10 8 -17 20 -17 20 -10 -5 4 -14 7 -27 7 -30 1 -43 -12 -51 -38 -25
-8 8 -21 12 -30 8 -18 -7 -13 -13 12 -17 28 -4 28 -23 -1 -30 -14 -4 -25 -14
-25 -22 0 -11 -6 -15 -20 -11 -11 3 -18 1 -14 -4 3 -5 17 -9 32 -9 34 0 59
-34 41 -56 -7 -8 -18 -13 -26 -10 -7 3 -13 2 -13 -3 0 -7 -28 -24 -65 -40 -5
-2 -1 6 9 18 23 25 16 26 -30 5 -19 -9 -32 -20 -29 -24 3 -5 -4 -12 -16 -15
-19 -6 -20 -7 -2 -20 10 -7 15 -17 10 -21 -4 -4 -7 -2 -7 4 0 7 -7 12 -15 12
-8 0 -15 5 -15 11 0 5 -5 7 -12 3 -8 -5 -5 -11 10 -17 12 -6 22 -13 22 -17 0
-14 -52 -8 -57 6 -3 8 -15 14 -26 14 -21 0 -21 0 -1 -16 20 -16 13 -16 -33 3
-10 4 -14 2 -10 -4 4 -6 -4 -9 -21 -7 -15 2 -21 1 -14 -2 6 -3 10 -10 6 -15
-7 -12 -2 -11 33 2 22 8 25 8 16 -2 -6 -6 -9 -18 -6 -25 4 -12 0 -12 -21 -4
-15 5 -25 6 -22 1 7 -10 -22 -24 -34 -16 -4 3 -10 -5 -13 -17 -5 -18 -9 -19
-21 -9 -12 10 -20 9 -43 -4 l-28 -16 35 5 c19 2 29 2 23 -1 -15 -6 -17 -33 -3
-33 5 0 7 -7 3 -16 -4 -11 -8 -12 -13 -4 -4 7 -24 12 -44 12 -22 0 -41 6 -49
17 -13 17 -67 25 -67 10 0 -5 5 -9 10 -9 22 0 8 -15 -16 -16 -20 -2 -24 2 -19
15 4 11 -1 9 -14 -6 -26 -28 -26 -33 -1 -28 12 2 20 -2 20 -10 0 -7 6 -16 13
-19 6 -3 2 -3 -10 0 -13 3 -23 1 -23 -5 0 -5 -16 -9 -35 -8 -19 1 -35 6 -35
10 0 5 -5 5 -12 1 -7 -5 -9 -2 -5 8 3 10 -1 18 -13 21 -10 3 -21 3 -23 0 -9
-8 17 -63 30 -63 7 0 13 -5 13 -11 0 -6 7 -3 16 5 8 9 23 16 32 15 10 0 12 -3
5 -5 -9 -4 -9 -13 -2 -31 8 -22 7 -24 -5 -14 -11 9 -17 8 -30 -4 -9 -9 -20
-14 -25 -11 -5 4 -12 0 -14 -6 -4 -10 -6 -10 -6 0 -1 7 6 15 14 18 8 4 13 10
10 15 -3 4 -13 5 -22 2 -10 -4 -14 -2 -10 4 5 7 -5 11 -27 10 -23 -1 -32 -5
-29 -14 3 -7 0 -13 -6 -13 -6 0 -11 10 -11 23 0 28 -38 55 -51 35 -12 -18 -11
-28 2 -28 5 0 7 5 4 10 -3 6 1 10 9 10 16 0 31 -18 23 -27 -4 -3 -21 -9 -39
-13 -31 -8 -32 -8 -5 -9 15 -1 27 -5 27 -10 0 -4 12 -7 28 -4 17 2 21 0 12 -4
-17 -9 -19 -21 -7 -40 5 -7 4 -13 -1 -13 -13 0 -33 25 -26 32 2 3 -1 8 -8 11
-9 3 -13 -6 -14 -29 0 -18 3 -31 9 -27 5 3 4 -4 -2 -16 -7 -11 -14 -21 -17
-21 -3 0 -3 4 0 9 4 5 0 11 -6 14 -10 3 -10 7 -1 18 9 11 8 18 -2 32 -12 17
-14 17 -29 -4 -9 -13 -12 -25 -7 -29 4 -3 13 -14 19 -25 9 -17 6 -23 -17 -36
-26 -15 -28 -15 -38 8 -7 15 -8 25 -1 29 5 3 7 12 4 20 -3 7 1 20 9 28 12 12
12 16 -4 30 -10 9 -21 16 -26 16 -5 0 0 -7 11 -16 18 -15 18 -15 -6 -10 -22 4
-23 4 -7 -8 21 -16 23 -30 2 -22 -8 3 -15 1 -15 -4 0 -6 5 -10 12 -10 6 0 9
-2 6 -5 -12 -12 -39 9 -35 26 3 10 -2 20 -10 23 -8 3 -11 1 -8 -4 3 -5 -7 -12
-22 -15 -41 -9 -73 -27 -67 -37 3 -4 0 -8 -5 -8 -14 0 -14 27 0 36 17 10 -12
25 -35 18 -13 -4 -16 -2 -11 6 4 7 1 16 -6 21 -11 7 -11 9 -1 9 7 0 10 5 7 10
-3 6 -13 10 -21 10 -8 0 -12 -4 -9 -10 3 -5 -3 -10 -14 -10 -13 0 -21 -7 -21
-17 -1 -10 -19 -31 -41 -46 l-41 -28 29 -25 c15 -13 24 -24 19 -24 -5 0 1 -8
12 -19 12 -10 19 -21 15 -25 -3 -3 -1 -6 6 -6 7 0 15 9 18 20 3 11 8 18 12 15
7 -3 7 7 2 47 -1 3 -17 5 -36 4 -20 -2 -38 1 -41 5 -3 5 -1 9 5 9 5 0 13 9 16
20 3 11 12 20 19 20 8 0 20 9 27 20 14 20 14 19 36 -5 22 -26 18 -30 -27 -26
-8 1 -21 -8 -28 -19 -13 -21 -3 -27 15 -9 17 17 34 1 29 -27 -3 -17 0 -24 10
-24 8 0 12 -4 9 -10 -4 -6 6 -7 25 -4 24 5 30 3 30 -10 0 -13 -8 -17 -27 -15
-46 3 -73 0 -73 -10 0 -5 6 -11 13 -14 6 -2 0 -2 -15 0 -25 4 -28 2 -28 -24 0
-17 -8 -33 -20 -41 -11 -7 -20 -21 -20 -31 0 -10 -7 -21 -15 -25 -8 -3 -15 -1
-15 4 0 6 4 10 9 10 5 0 7 9 4 20 -4 14 0 20 11 20 9 0 16 5 16 10 0 6 -8 10
-17 10 -15 0 -16 2 -3 10 10 6 16 6 18 0 2 -6 8 -8 12 -5 15 10 -1 35 -22 35
-13 0 -18 5 -15 14 6 14 -26 29 -38 18 -9 -9 -35 -11 -35 -2 0 4 17 11 37 15
32 6 40 3 52 -14 16 -25 31 -27 31 -5 0 9 -5 12 -12 8 -7 -4 -8 -3 -4 4 4 7 3
12 -2 12 -5 0 -14 11 -20 25 -8 17 -16 23 -28 18 -14 -5 -15 -3 -5 15 15 27
14 32 -4 32 -8 0 -15 5 -15 11 0 6 8 8 19 4 16 -5 19 -1 18 30 -1 19 -5 35 -9
35 -4 0 -8 -4 -8 -10 0 -5 -4 -10 -10 -10 -5 0 -6 7 -3 17 4 10 2 14 -5 9 -6
-3 -13 -2 -17 4 -3 6 1 13 9 16 27 10 18 22 -16 21 -28 -2 -56 -27 -29 -27 6
0 11 -4 11 -10 0 -5 -7 -10 -16 -10 -9 0 -14 -6 -11 -12 2 -7 11 -12 21 -10 9
2 16 -2 16 -8 0 -13 -37 -13 -45 0 -4 6 -14 10 -23 9 -30 -3 -52 1 -52 9 0 4
16 8 36 9 20 1 42 7 48 14 8 9 6 10 -11 6 -13 -3 -23 -1 -23 4 0 5 6 9 13 9 7
0 27 14 45 30 38 34 42 36 42 15 0 -8 7 -15 16 -15 10 0 14 -6 11 -15 -4 -8
-2 -17 3 -20 6 -4 10 1 10 9 0 9 4 16 9 16 5 0 12 7 15 16 5 13 1 15 -24 12
-21 -3 -27 -1 -20 6 28 28 -11 37 -42 9 -18 -16 -20 -14 -21 22 -1 51 2 57 26
50 17 -6 19 -5 11 5 -15 16 -55 4 -48 -15 3 -8 -3 -16 -16 -20 -25 -8 -35 -1
-25 15 6 9 10 9 16 -1 7 -11 9 -9 9 7 0 11 -5 25 -12 32 -9 9 -7 13 5 18 11 4
14 11 7 22 -5 10 -12 26 -15 37 -7 20 -7 20 -15 0 -5 -13 -2 -24 9 -32 25 -18
0 -39 -28 -24 -17 9 -28 7 -59 -13 -37 -23 -100 -27 -86 -5 3 5 10 7 15 4 5
-4 9 -1 9 6 0 9 3 9 14 0 9 -7 17 -8 20 -3 5 9 -39 27 -56 24 -3 -1 -12 5 -18
13 -10 12 -9 15 9 15 11 0 21 -4 21 -10 0 -5 9 -10 21 -10 11 0 30 -5 41 -11
16 -9 19 -8 13 2 -5 7 -4 10 2 6 6 -4 16 0 23 8 10 13 8 15 -13 15 -14 0 -28
-6 -30 -12 -3 -7 -6 -4 -6 7 -1 14 -4 16 -12 8 -9 -9 -16 -8 -27 4 -12 12 -13
16 -3 23 10 6 10 12 1 29 -6 12 -8 30 -5 41 3 10 1 21 -4 24 -16 10 0 38 18
33 9 -2 23 2 30 10 7 8 19 12 27 9 8 -3 14 -1 14 4 0 6 -2 10 -4 10 -2 0 -12
3 -22 7 -12 4 -15 3 -10 -5 5 -8 -1 -11 -19 -10 -19 2 -33 -6 -52 -30 -23 -30
-26 -31 -38 -16 -15 22 -35 10 -28 -16 3 -11 0 -20 -6 -20 -17 0 -13 25 10 65
19 31 19 34 3 28 -13 -5 -16 -3 -11 10 5 13 1 17 -17 17 -27 0 -39 20 -25 41
7 11 9 10 9 -4 0 -10 4 -16 10 -12 5 3 7 12 3 20 -3 9 0 22 7 30 10 11 9 18
-5 31 -12 13 -13 19 -4 24 17 11 3 40 -18 40 -17 -1 -17 -1 1 -11 17 -11 17
-13 -10 -34 -28 -23 -29 -23 -46 -3 -16 19 -16 22 3 55 16 29 17 34 5 30 -9
-4 -16 -4 -16 -1 0 12 63 64 69 58 3 -4 0 -9 -6 -11 -15 -5 -18 -33 -4 -33 5
0 12 -8 14 -17 3 -12 5 -10 6 7 1 20 3 22 11 10 8 -13 10 -12 10 3 0 9 -5 17
-11 17 -7 0 -10 14 -7 35 l4 35 -21 -20 c-13 -12 -29 -18 -38 -14 -12 4 -17 1
-17 -11 0 -10 4 -13 13 -9 8 6 8 3 -1 -9 -13 -15 -15 -15 -35 3 -11 11 -33 26
-49 32 -32 15 -35 23 -12 32 11 4 18 -1 21 -14 6 -22 29 -27 36 -7 2 6 8 8 13
4 5 -4 2 -12 -5 -16 -9 -6 -10 -11 -2 -15 6 -4 13 4 17 19 5 22 9 24 22 13 13
-11 14 -10 10 2 -3 8 -14 15 -25 14 -11 0 -20 6 -20 13 0 8 7 11 15 8 10 -3
12 0 9 10 -10 24 12 28 23 3 10 -22 10 -21 5 5 -3 17 -1 27 6 27 7 0 9 3 6 7
-4 3 -2 12 3 18 8 9 6 14 -5 19 -9 3 -15 0 -15 -9 0 -8 -3 -15 -7 -15 -5 0 -8
16 -8 35 0 29 3 35 19 33 14 -2 20 4 23 24 2 14 -1 29 -7 33 -6 4 -8 -6 -6
-27 3 -27 2 -30 -8 -15 -10 12 -15 14 -24 5 -9 -9 -12 -9 -12 0 0 7 -4 12 -10
12 -5 0 -7 -14 -4 -32 l6 -33 -21 25 c-15 18 -21 21 -21 10 0 -9 5 -21 10 -26
7 -7 5 -17 -6 -30 -13 -16 -15 -16 -10 -2 3 10 1 20 -4 23 -16 10 -12 -41 4
-54 17 -14 28 -51 14 -51 -5 0 -6 -5 -2 -12 4 -7 3 -8 -5 -4 -6 4 -9 12 -6 17
9 14 -7 10 -29 -6 -28 -21 -37 -9 -19 25 8 17 12 38 9 46 -3 9 -2 12 4 9 7 -4
9 15 6 57 -5 60 -5 61 8 29 11 -31 13 -33 21 -15 4 10 9 22 9 26 2 11 16 22
16 12 0 -5 16 -9 35 -9 31 0 33 2 18 13 -9 6 -18 18 -19 25 -1 6 -6 21 -10 31
-5 14 -4 17 4 12 7 -4 12 -2 12 3 0 6 5 11 10 11 6 0 5 -8 -2 -20 -9 -15 -10
-22 -1 -31 20 -20 35 1 31 42 -3 32 0 39 14 39 10 0 18 -3 18 -8 0 -4 9 -13
19 -19 16 -10 20 -9 24 8 4 16 3 18 -8 9 -9 -8 -14 -6 -19 7 -4 10 -3 19 3 21
5 2 7 10 4 18 -7 20 3 17 25 -6 19 -21 19 -21 25 -1 3 12 0 18 -7 15 -6 -2
-22 5 -34 16 -21 20 -22 22 -5 45 17 23 38 30 31 10 -2 -6 -6 -9 -10 -7 -5 1
-8 -2 -8 -7 0 -11 39 -25 47 -18 2 3 0 15 -7 26 -6 12 -8 26 -5 31 3 5 -1 7
-9 4 -8 -3 -26 0 -40 8 l-25 13 41 45 c23 25 38 37 35 28 -8 -21 28 -46 36
-25 3 7 6 5 6 -5 1 -12 -6 -17 -26 -15 -15 1 -28 -4 -31 -12 -3 -10 2 -12 22
-7 15 4 26 2 26 -4 0 -5 7 -10 15 -10 8 0 15 5 15 10 0 17 28 11 40 -7 9 -15
10 -14 4 6 -5 20 -3 23 10 18 14 -6 15 -3 6 13 -12 22 -1 27 18 8 22 -22 13
-2 -13 28 -13 15 -27 25 -31 21 -4 -4 -2 -7 4 -7 17 0 15 -17 -2 -23 -21 -8
-27 30 -8 50 19 19 26 50 12 58 -6 3 -10 -1 -10 -10 0 -9 -6 -26 -14 -38 -8
-12 -14 -34 -12 -49 2 -16 -1 -28 -7 -28 -5 0 -7 9 -4 20 6 23 -11 39 -23 21
-5 -9 -11 -7 -21 5 -9 12 -10 15 -1 10 8 -5 12 0 13 16 0 16 2 19 7 8 12 -26
34 -24 27 2 -4 16 -3 19 3 10 8 -11 10 -11 15 1 3 8 -3 22 -14 31 -16 13 -17
19 -7 30 15 16 29 11 22 -8 -3 -9 6 -13 31 -13 26 0 34 4 31 14 -3 8 -1 11 4
8 15 -9 12 -23 -12 -55 -17 -23 -19 -33 -10 -42 9 -9 12 -6 12 15 0 20 4 25
17 20 11 -4 14 -3 9 5 -4 7 -3 12 3 12 6 0 8 6 5 14 -3 8 -1 23 5 33 10 16 10
15 8 -6 -1 -18 4 -26 24 -31 22 -6 27 -3 36 21 7 16 7 29 2 29 -5 0 -9 -6 -9
-14 0 -15 -29 -30 -39 -20 -3 3 2 10 12 15 9 6 17 19 17 29 0 12 7 20 16 20
14 0 15 2 3 17 -13 15 -14 15 -17 0 -6 -29 -19 -19 -28 21 -4 20 -6 43 -5 49
1 7 -6 24 -15 38 -9 14 -12 25 -7 25 5 0 15 -12 21 -26 9 -19 17 -24 32 -19
12 4 20 2 20 -5 0 -7 6 -6 15 4 19 19 19 35 -1 57 -13 14 -13 20 -2 38 7 12
16 21 20 21 5 0 8 12 8 26 0 16 12 37 30 54 17 15 30 24 30 20 0 -5 -4 -12
-10 -15 -5 -3 -10 -14 -10 -23 0 -13 2 -14 9 -4 4 8 12 14 16 14 4 0 12 -6 17
-14 6 -9 7 -5 3 10 -7 23 -7 23 19 7 24 -16 26 -16 20 -1 -3 9 -10 13 -15 10
-5 -3 -9 0 -9 5 0 6 5 11 10 11 6 0 10 4 10 10 0 5 -6 7 -14 4 -8 -3 -17 -1
-21 5 -3 6 1 11 9 11 17 0 35 29 29 46 -2 6 3 11 12 11 19 0 19 -14 -1 -34
-11 -11 -12 -18 -4 -23 6 -4 10 -11 9 -16 -4 -22 2 -44 12 -44 5 0 7 6 4 13
-4 6 -1 5 7 -4 9 -10 21 -13 38 -9 l25 6 -23 8 c-12 4 -29 20 -37 36 -18 34
-18 40 -5 40 6 0 10 -10 10 -22 0 -21 15 -17 15 5 1 7 7 11 14 9 9 -2 12 4 8
17 -3 15 0 19 14 16 12 -3 16 1 12 11 -3 8 0 14 7 14 9 0 11 -12 7 -42 -4 -27
-2 -37 4 -27 5 7 9 25 9 38 0 29 -38 93 -51 85 -5 -3 -6 -11 -3 -17 4 -7 3 -8
-2 -4 -12 11 -12 30 0 38 5 4 19 -4 31 -17 19 -21 24 -22 35 -10 6 9 9 20 6
25 -4 5 -2 12 4 16 5 3 10 -2 11 -12 0 -10 6 -3 14 17 11 29 18 33 17 10 0 -3
6 -11 14 -18 11 -10 16 -8 30 13 9 14 21 22 28 18 6 -4 4 1 -4 12 -14 16 -15
16 -18 1 -2 -9 -8 -14 -13 -11 -13 9 -11 92 2 101 8 4 9 0 4 -15 -5 -16 -2
-21 10 -21 12 0 15 6 10 20 -3 11 -2 20 3 20 5 0 12 8 15 18 2 11 14 21 26 25
28 7 27 -11 -1 -23 l-23 -9 22 0 c12 -1 29 6 37 15 18 17 21 28 6 19 -5 -3
-10 -1 -10 4 0 6 5 11 11 11 5 0 7 5 4 10 -3 6 2 10 12 11 16 0 16 1 -2 9 -19
8 -19 9 4 9 20 1 22 -3 17 -23 -8 -32 7 -75 19 -56 5 9 4 15 -3 18 -22 7 -12
23 11 17 21 -6 21 -6 3 9 -11 9 -16 17 -10 17 9 1 22 4 39 9 6 1 -3 5 -19 9
-35 7 -38 22 -7 36 11 5 21 15 21 21 0 7 7 14 15 18 8 3 15 12 15 19 0 8 6 20
14 27 8 6 17 21 19 33 3 21 4 21 12 3 6 -13 5 -21 -3 -24 -7 -2 -9 -8 -6 -13
4 -6 11 -6 19 1 9 8 15 8 20 0 3 -5 11 -10 17 -10 7 0 6 5 -1 14 -10 12 -7 18
14 32 23 15 28 15 36 3 6 -10 9 -11 9 -1 0 7 -12 17 -27 23 -20 8 -24 12 -14
22 9 9 14 9 20 -2 6 -9 11 -10 15 -2 4 6 12 11 17 11 6 0 7 -5 3 -12 -4 -6 -3
-8 2 -5 6 3 16 2 24 -3 12 -7 9 -14 -15 -35 l-30 -27 33 16 c20 10 32 24 32
36 0 20 16 24 75 22 15 0 13 3 -7 11 -16 6 -28 15 -28 20 0 4 4 6 9 2 5 -3 12
-1 16 5 3 5 2 10 -3 10 -6 0 -12 7 -16 15 -5 13 -2 14 15 4 17 -9 23 -8 30 2
5 9 3 16 -9 20 -15 5 -14 7 6 13 12 4 31 4 42 1 11 -4 20 -2 20 4 0 6 -19 12
-42 12 -24 1 -35 3 -25 6 9 2 15 9 11 14 -3 5 -10 7 -15 4 -5 -4 -9 -1 -9 4 0
6 9 11 19 11 25 0 32 12 20 30 -6 10 -9 11 -9 3 0 -20 -17 -15 -23 6 -5 21 28
37 39 19 4 -6 10 -5 15 3 17 28 17 2 -1 -33 -21 -44 -13 -66 19 -49 22 12 29
31 11 31 -5 0 -10 7 -10 15 0 8 8 15 18 14 11 0 13 -2 4 -6 -17 -6 23 -36 53
-40 20 -3 20 -3 0 13 -19 15 -19 15 10 9 17 -4 25 -3 18 2 -8 6 -8 13 2 26 11
15 13 16 19 2 3 -8 11 -15 18 -15 8 0 9 3 3 8 -16 12 -16 32 0 32 9 0 18 7 21
15 4 8 12 15 19 15 8 0 11 8 8 19 -4 17 -9 18 -36 9 -42 -14 -58 -28 -50 -42
3 -6 0 -5 -8 3 -11 10 -11 15 -1 18 6 3 12 11 12 19 0 8 7 14 16 14 14 0 14 3
4 15 -15 18 -35 20 -24 3 5 -7 3 -8 -6 -3 -10 6 -9 11 5 22 13 8 14 13 5 13
-7 0 -10 3 -7 6 4 4 14 1 23 -7 14 -11 18 -11 29 4 15 21 36 23 29 2 -4 -10 0
-15 11 -15 12 0 16 6 12 20 -4 16 0 20 19 20 13 0 24 6 24 13 1 7 6 5 14 -5
16 -22 39 -23 56 -3 10 12 10 15 0 15 -8 0 -11 2 -8 5 3 3 30 -3 59 -15 71
-26 76 -26 82 13 5 34 0 48 -11 32 -8 -11 -52 -15 -52 -6 0 3 4 12 9 20 7 11
10 11 16 0 6 -9 10 -8 15 7 4 10 2 23 -4 27 -7 6 -4 7 6 3 10 -3 24 1 32 10 9
9 17 10 21 4 3 -5 2 -10 -3 -10 -5 0 -12 -9 -15 -21 -4 -15 1 -22 19 -30 34
-12 39 -11 24 6 -15 18 1 20 18 3 7 -7 12 -8 12 -2 0 6 -4 14 -9 20 -6 5 1 10
20 11 16 1 37 7 47 12 13 8 9 10 -19 7 -28 -2 -36 1 -32 12 3 8 14 11 25 9 10
-3 42 3 71 13 63 23 65 23 82 6z m-275 -21 c0 -9 -9 -15 -22 -14 -18 1 -19 2
-5 6 9 2 15 9 12 14 -4 5 -1 9 4 9 6 0 11 -7 11 -15z m467 0 c9 -24 -1 -27
-15 -5 -8 13 -8 20 -2 20 6 0 13 -7 17 -15z m803 0 c-7 -8 -16 -12 -21 -9 -13
8 -1 24 18 24 13 0 13 -3 3 -15z m-1187 -12 c-3 -7 -9 -13 -13 -13 -4 0 -10 6
-13 13 -3 7 3 13 13 13 10 0 16 -6 13 -13z m254 -13 c-15 -13 -24 -15 -29 -7
-10 16 -1 25 26 25 l25 0 -22 -18z m66 3 c-6 -16 -5 -17 12 -3 17 14 18 14 6
-7 -6 -13 -7 -23 -2 -23 5 0 11 5 13 11 2 7 8 6 15 -3 10 -11 7 -14 -18 -16
-23 -2 -31 3 -39 23 -13 34 -13 35 5 35 10 0 12 -6 8 -17z m111 4 c4 4 4 0 0
-10 -4 -11 -1 -17 7 -17 7 0 9 -3 6 -7 -4 -3 -16 3 -27 15 -23 24 -27 40 -7
23 8 -6 17 -8 21 -4z m-719 -15 c-3 -3 -11 0 -18 7 -9 10 -8 11 6 5 10 -3 15
-9 12 -12z m139 -7 c-4 -8 -8 -15 -10 -15 -2 0 -4 7 -4 15 0 8 4 15 10 15 5 0
7 -7 4 -15z m438 -10 c4 -17 1 -25 -8 -25 -14 0 -19 31 -7 43 9 10 10 9 15
-18z m613 15 c3 -6 -1 -7 -9 -4 -18 7 -21 14 -7 14 6 0 13 -4 16 -10z m-1148
-6 c-3 -3 -12 -4 -19 -1 -8 3 -5 6 6 6 11 1 17 -2 13 -5z m657 -9 c3 -8 1 -15
-4 -15 -6 0 -10 7 -10 15 0 8 2 15 4 15 2 0 6 -7 10 -15z m531 5 c-3 -5 -11
-10 -16 -10 -6 0 -7 5 -4 10 3 6 11 10 16 10 6 0 7 -4 4 -10z m-288 -14 c-3
-7 -1 -18 4 -23 6 -6 5 -14 -4 -22 -12 -10 -14 -6 -12 21 3 38 3 38 11 38 3 0
4 -6 1 -14z m260 -22 c-7 -7 -37 7 -37 17 0 6 9 5 21 -1 11 -7 19 -14 16 -16z
m-1222 6 c4 -6 12 -7 18 -3 7 4 6 -1 -2 -10 -8 -10 -14 -16 -15 -15 -1 2 -8
11 -15 21 -8 10 -9 17 -3 17 6 0 14 -5 17 -10z m142 4 c-9 -9 19 -34 37 -34 9
0 16 -4 16 -10 0 -17 -25 -11 -48 10 -12 11 -31 20 -44 21 -23 1 -22 1 2 9 32
10 45 12 37 4z m378 -4 c3 -5 -1 -10 -9 -10 -9 0 -16 5 -16 10 0 6 4 10 9 10
6 0 13 -4 16 -10z m890 0 c3 -5 1 -10 -4 -10 -6 0 -11 5 -11 10 0 6 2 10 4 10
3 0 8 -4 11 -10z m-701 -29 c-2 -3 -12 3 -22 13 -16 17 -16 18 5 5 12 -7 20
-15 17 -18z m-16 -11 c43 -31 54 -47 27 -36 -9 3 -18 -1 -21 -9 -4 -8 -10 -15
-16 -15 -5 0 -2 10 6 22 14 19 14 23 -2 34 -9 8 -25 14 -34 14 -10 0 -18 5
-18 10 0 17 15 11 58 -20z m377 21 c3 -6 -3 -9 -14 -8 -11 0 -17 5 -15 9 7 11
22 10 29 -1z m-995 -21 c0 -5 -4 -10 -10 -10 -5 0 -10 5 -10 10 0 6 5 10 10
10 6 0 10 -4 10 -10z m590 -16 c0 -8 -4 -12 -10 -9 -5 3 -10 10 -10 16 0 5 5
9 10 9 6 0 10 -7 10 -16z m130 0 c0 -2 -7 -4 -15 -4 -8 0 -15 4 -15 10 0 5 7
7 15 4 8 -4 15 -8 15 -10z m250 12 c0 -3 -4 -8 -10 -11 -5 -3 -10 -1 -10 4 0
6 5 11 10 11 6 0 10 -2 10 -4z m-1133 -28 c-3 -8 -6 -5 -6 6 -1 11 2 17 5 13
3 -3 4 -12 1 -19z m983 9 c0 -4 0 -13 0 -19 0 -9 -3 -10 -8 -2 -4 6 -16 16
-27 22 -18 11 -18 12 8 9 15 -2 27 -6 27 -10z m64 -3 c8 -21 8 -24 -3 -24 -5
0 -11 9 -14 20 -6 24 8 27 17 4z m46 -9 c-7 -9 -15 -13 -19 -10 -3 3 1 10 9
15 21 14 24 12 10 -5z m-235 -5 c3 -5 2 -10 -4 -10 -5 0 -13 5 -16 10 -3 6 -2
10 4 10 5 0 13 -4 16 -10z m295 -11 c0 -6 -4 -7 -10 -4 -5 3 -10 11 -10 16 0
6 5 7 10 4 6 -3 10 -11 10 -16z m86 14 c-10 -11 -37 -12 -30 -2 3 5 12 9 21 9
9 0 13 -3 9 -7z m-266 -34 c0 -6 -4 -8 -9 -4 -5 3 -12 1 -16 -5 -10 -17 -35
-12 -28 6 3 8 12 13 19 10 8 -3 14 -1 14 5 0 6 5 7 10 4 6 -3 10 -11 10 -16z
m-1036 -3 c-3 -9 -12 -12 -22 -9 -15 6 -9 11 25 22 1 1 0 -5 -3 -13z m936 5
c0 -6 -4 -13 -10 -16 -5 -3 -10 1 -10 9 0 9 5 16 10 16 6 0 10 -4 10 -9z m151
-43 c-12 -11 -13 -10 -8 5 4 9 2 17 -2 17 -5 0 -12 8 -15 18 -6 13 -2 12 16
-5 18 -19 20 -25 9 -35z m39 32 c-6 -11 -13 -20 -16 -20 -2 0 0 9 6 20 6 11
13 20 16 20 2 0 0 -9 -6 -20z m146 5 c10 -8 15 -14 9 -14 -5 0 -19 6 -29 14
-11 8 -15 15 -10 15 6 0 19 -7 30 -15z m-28 -33 c23 3 27 0 24 -19 -2 -13 2
-23 8 -23 8 0 8 -6 0 -20 -11 -21 -30 -27 -30 -9 0 5 5 7 10 4 13 -8 13 11 0
36 -11 20 -50 27 -50 9 0 -5 -3 -10 -7 -10 -5 0 -8 16 -9 35 0 33 0 33 14 14
9 -13 23 -19 40 -17z m-373 18 c-3 -5 -2 -10 3 -10 6 0 12 -7 16 -15 4 -12 2
-13 -17 -2 -12 6 -24 13 -26 14 -6 3 10 23 20 23 6 0 7 -4 4 -10z m560 0 c3
-5 1 -10 -4 -10 -6 0 -11 5 -11 10 0 6 2 10 4 10 3 0 8 -4 11 -10z m-394 -14
c-6 -7 -9 -21 -5 -30 5 -12 2 -15 -10 -10 -20 8 -20 13 1 36 19 21 31 25 14 4z
m129 10 c0 -3 -4 -8 -10 -11 -5 -3 -10 -1 -10 4 0 6 5 11 10 11 6 0 10 -2 10
-4z m-240 -17 c0 -6 9 -9 20 -6 11 3 20 1 20 -4 0 -15 -36 -10 -50 6 -9 10 -9
15 -1 15 6 0 11 -5 11 -11z m70 -4 c-7 -9 -15 -13 -17 -11 -7 7 7 26 19 26 6
0 6 -6 -2 -15z m-1183 -17 c-3 -8 -6 -5 -6 6 -1 11 2 17 5 13 3 -3 4 -12 1
-19z m1788 12 c3 -5 1 -10 -4 -10 -6 0 -11 5 -11 10 0 6 2 10 4 10 3 0 8 -4
11 -10z m-1635 -20 c0 -11 -5 -20 -11 -20 -5 0 -7 5 -3 11 3 6 0 15 -7 20 -11
7 -10 9 4 9 10 0 17 -8 17 -20z m-46 -5 c-4 -8 -11 -15 -16 -15 -6 0 -5 6 2
15 7 8 14 15 16 15 2 0 1 -7 -2 -15z m80 -21 c9 -3 16 -14 16 -23 0 -14 -2
-14 -11 -1 -8 11 -12 12 -16 3 -8 -21 -22 -15 -16 7 6 22 6 22 27 14z m1186
-33 c-6 -12 -8 -26 -5 -31 3 -6 1 -10 -5 -10 -19 0 -24 32 -7 42 10 5 14 15
10 26 -5 13 -3 14 6 6 10 -9 10 -17 1 -33z m53 3 c5 -28 -8 -33 -17 -6 -3 9
-9 23 -12 30 -4 8 0 10 9 6 8 -3 17 -16 20 -30z m903 22 c7 -19 -14 -58 -29
-53 -14 4 -21 32 -13 53 7 18 35 18 42 0z m-2475 -18 c-8 -21 -31 -33 -31 -15
0 4 0 14 0 22 0 8 9 15 20 15 16 0 18 -4 11 -22z m1634 12 c3 -5 1 -10 -4 -10
-6 0 -11 5 -11 10 0 6 2 10 4 10 3 0 8 -4 11 -10z m-1485 -4 c0 -3 -4 -8 -10
-11 -5 -3 -10 -1 -10 4 0 6 5 11 10 11 6 0 10 -2 10 -4z m1700 -6 c0 -5 -5
-10 -11 -10 -5 0 -7 5 -4 10 3 6 8 10 11 10 2 0 4 -4 4 -10z m-1730 -4 c0 -2
-7 -7 -16 -10 -8 -3 -12 -2 -9 4 6 10 25 14 25 6z m1425 -15 c3 -5 1 -12 -5
-16 -5 -3 -10 1 -10 9 0 18 6 21 15 7z m-1388 -8 c-14 -4 -15 -8 -7 -18 10
-12 7 -12 -14 -2 -27 13 -16 27 19 26 18 -1 18 -2 2 -6z m1486 -23 c3 -11 1
-18 -4 -14 -5 3 -9 12 -9 20 0 20 7 17 13 -6z m277 10 c8 -5 11 -10 5 -10 -5
0 -17 5 -25 10 -8 5 -10 10 -5 10 6 0 17 -5 25 -10z m-1890 -14 c0 -3 -4 -8
-10 -11 -5 -3 -10 -1 -10 4 0 6 5 11 10 11 6 0 10 -2 10 -4z m115 -48 c-10
-31 -21 -42 -34 -34 -16 10 -13 26 4 26 8 0 15 7 15 15 0 8 5 15 11 15 6 0 8
-9 4 -22z m1609 -13 c-4 -8 -8 -15 -10 -15 -2 0 -4 7 -4 15 0 8 4 15 10 15 5
0 7 -7 4 -15z m-130 -7 c-3 -4 -9 -8 -15 -8 -5 0 -9 4 -9 8 0 5 7 9 15 9 8 0
12 -4 9 -9z m106 8 c0 -3 -4 -8 -10 -11 -5 -3 -10 -1 -10 4 0 6 5 11 10 11 6
0 10 -2 10 -4z m55 -34 c-3 -3 -11 0 -18 7 -9 10 -8 11 6 5 10 -3 15 -9 12
-12z m-1659 -6 c31 -6 16 -42 -21 -48 -16 -2 -20 3 -20 22 0 15 -5 24 -12 23
-7 -2 -13 2 -13 7 0 6 10 8 23 5 13 -4 32 -8 43 -9z m1584 -3 c0 -10 -4 -14
-8 -8 -4 6 -11 13 -16 18 -5 4 -2 7 7 7 10 0 17 -8 17 -17z m-1665 -3 c3 -5 2
-10 -4 -10 -5 0 -13 5 -16 10 -3 6 -2 10 4 10 5 0 13 -4 16 -10z m-70 -20 c-3
-5 -11 -10 -16 -10 -6 0 -7 5 -4 10 3 6 11 10 16 10 6 0 7 -4 4 -10z m60 -8
c-3 -3 -11 0 -18 7 -9 10 -8 11 6 5 10 -3 15 -9 12 -12z m35 8 c0 -5 -5 -10
-11 -10 -5 0 -7 5 -4 10 3 6 8 10 11 10 2 0 4 -4 4 -10z m1679 -31 c-22 -14
-33 -10 -19 6 7 8 17 12 22 9 6 -4 5 -10 -3 -15z m289 -11 c-5 -34 -38 -37
-38 -4 0 20 5 26 21 26 15 0 20 -5 17 -22z m-2110 -9 c-20 -13 -28 -11 -22 5
3 8 12 12 21 9 12 -5 12 -7 1 -14z m57 -4 c0 -10 -7 -21 -15 -23 -12 -4 -13
-2 -3 10 10 11 10 17 0 27 -10 11 -9 13 3 9 8 -3 15 -13 15 -23z m3785 1 c0
-8 -4 -17 -9 -20 -10 -7 -23 19 -14 28 11 11 23 6 23 -8z m-3892 -50 c3 -39
-2 -44 -24 -22 -16 17 -19 30 -3 21 6 -4 10 -1 8 6 -3 25 1 40 9 35 4 -2 9
-21 10 -40z m-53 14 c-3 -5 -12 -10 -18 -10 -7 0 -6 4 3 10 19 12 23 12 15 0z
m1771 -5 c-11 -8 -22 -12 -25 -9 -6 6 19 24 34 24 6 -1 1 -7 -9 -15z m154 -14
c0 -6 -4 -13 -10 -16 -5 -3 -10 1 -10 9 0 9 5 16 10 16 6 0 10 -4 10 -9z
m-160 -21 c0 -5 -4 -10 -10 -10 -5 0 -10 5 -10 10 0 6 5 10 10 10 6 0 10 -4
10 -10z m-1810 -12 c0 -4 -4 -8 -9 -8 -6 0 -12 4 -15 8 -3 5 1 9 9 9 8 0 15
-4 15 -9z m10 -24 c0 -3 -5 -15 -11 -26 -9 -17 -13 -18 -20 -7 -13 21 -11 29
8 22 11 -4 14 -3 9 5 -4 7 -2 12 3 12 6 0 11 -3 11 -6z m1725 -3 c3 -5 1 -12
-5 -16 -5 -3 -10 1 -10 9 0 18 6 21 15 7z m75 5 c0 -3 -4 -8 -10 -11 -5 -3
-10 -1 -10 4 0 6 5 11 10 11 6 0 10 -2 10 -4z m30 -6 c0 -5 -2 -10 -4 -10 -3
0 -8 5 -11 10 -3 6 -1 10 4 10 6 0 11 -4 11 -10z m-1799 -23 c-10 -9 -11 -8
-5 6 3 10 9 15 12 12 3 -3 0 -11 -7 -18z m1714 -7 c3 -5 1 -10 -4 -10 -6 0
-11 5 -11 10 0 6 2 10 4 10 3 0 8 -4 11 -10z m161 -15 c-3 -9 -10 -13 -16 -10
-6 4 -5 11 3 20 15 16 22 11 13 -10z m89 -54 c-3 -6 -11 -11 -16 -11 -5 0 -4
6 3 14 14 16 24 13 13 -3z m553 -6 c5 -25 -19 -37 -34 -17 -9 12 -9 21 -2 30
14 16 32 10 36 -13z m-2660 -9 c-7 -7 -19 -11 -27 -8 -11 4 -10 7 5 13 29 12
36 10 22 -5z m2129 -8 c-3 -8 -6 -5 -6 6 -1 11 2 17 5 13 3 -3 4 -12 1 -19z
m-2595 -33 c-12 -22 -27 -2 -18 22 5 12 10 13 17 6 7 -7 8 -17 1 -28z m409
-13 c-6 -2 -8 -9 -5 -14 4 -7 2 -8 -4 -4 -9 5 -8 12 1 27 7 12 13 15 16 7 2
-7 -1 -14 -8 -16z m2113 -8 c3 -8 2 -12 -4 -9 -6 3 -10 10 -10 16 0 14 7 11
14 -7z m-3641 -10 c8 -8 -3 -34 -14 -34 -5 0 -9 9 -9 20 0 19 11 26 23 14z
m1494 -16 c-3 -8 -6 -5 -6 6 -1 11 2 17 5 13 3 -3 4 -12 1 -19z m2077 5 c-5
-5 -12 -12 -16 -18 -4 -6 -8 -2 -8 8 0 9 7 17 17 17 9 0 12 -3 7 -7z m-2020
-18 c-4 -8 -11 -15 -17 -15 -5 0 3 -11 19 -25 15 -13 25 -27 21 -31 -4 -5 -14
2 -23 14 -8 11 -20 19 -27 16 -7 -2 -13 5 -13 20 -1 16 3 23 11 20 7 -3 16 -1
20 5 9 16 15 13 9 -4z m-70 -4 c9 -14 -5 -42 -16 -35 -6 4 -5 10 3 15 12 8 11
11 -1 19 -9 6 -10 10 -3 10 6 0 14 -4 17 -9z m4066 -37 c0 -7 -5 -16 -11 -20
-17 -10 -32 12 -24 36 5 17 10 19 21 9 8 -6 14 -17 14 -25z m-4107 11 c-3 -9
-8 -14 -10 -11 -3 3 -2 9 2 15 9 16 15 13 8 -4z m3837 -29 c0 -16 -18 -31 -27
-22 -8 8 5 36 17 36 5 0 10 -6 10 -14z m-1582 -21 c-3 -3 -9 2 -12 12 -6 14
-5 15 5 6 7 -7 10 -15 7 -18z m67 7 c-3 -3 -11 0 -18 7 -9 10 -8 11 6 5 10 -3
15 -9 12 -12z m45 -16 c0 -3 -4 -8 -10 -11 -5 -3 -10 -1 -10 4 0 6 5 11 10 11
6 0 10 -2 10 -4z m-2320 -16 c0 -5 -4 -10 -10 -10 -5 0 -10 5 -10 10 0 6 5 10
10 10 6 0 10 -4 10 -10z m2296 -22 c5 -8 2 -9 -11 -4 -11 4 -26 0 -39 -11
l-21 -18 19 23 c21 24 41 28 52 10z m-3286 -29 c0 -10 -7 -19 -15 -19 -15 0
-21 31 -9 43 11 10 24 -3 24 -24z m3206 13 c-5 -14 1 -22 21 -31 21 -10 24
-14 13 -21 -12 -7 -12 -12 -2 -22 6 -6 12 -19 12 -27 0 -9 -8 -3 -19 14 -12
21 -15 32 -7 37 6 4 -2 8 -17 8 -16 0 -26 -4 -22 -10 3 -5 1 -10 -5 -10 -7 0
-10 3 -8 8 3 4 10 22 17 40 14 34 26 45 17 14z m-2321 -10 c-3 -3 -11 0 -18 7
-9 10 -8 11 6 5 10 -3 15 -9 12 -12z m2516 -5 c-10 -9 -11 -8 -5 6 3 10 9 15
12 12 3 -3 0 -11 -7 -18z m-2457 -2 c-4 -8 -10 -12 -15 -9 -5 3 -12 -1 -15
-10 -3 -8 -13 -17 -22 -21 -13 -5 -12 -1 4 17 33 39 59 51 48 23z m2350 -1 c9
-24 7 -28 -9 -14 -17 14 -20 30 -6 30 5 0 12 -7 15 -16z m44 -19 c-3 -3 -9 2
-12 12 -6 14 -5 15 5 6 7 -7 10 -15 7 -18z m-7011 -33 c-14 -17 -22 0 -12 26
5 14 7 14 15 2 5 -9 4 -20 -3 -28z m6831 -1 c12 -10 22 -21 22 -25 0 -12 -37
13 -44 29 -7 20 -4 19 22 -4z m127 10 c3 -5 1 -12 -5 -16 -5 -3 -10 1 -10 9 0
18 6 21 15 7z m-2460 -29 c-3 -3 -11 0 -18 7 -9 10 -8 11 6 5 10 -3 15 -9 12
-12z m2442 -34 c-3 -8 -6 -5 -6 6 -1 11 2 17 5 13 3 -3 4 -12 1 -19z m37 -4
c3 -8 2 -12 -4 -9 -6 3 -10 10 -10 16 0 14 7 11 14 -7z m-2579 -14 c3 -6 -1
-7 -9 -4 -18 7 -21 14 -7 14 6 0 13 -4 16 -10z m2585 -43 c0 -4 -6 -2 -14 5
-8 7 -12 17 -9 22 5 8 23 -12 23 -27z m-63 1 c-3 -8 -6 -5 -6 6 -1 11 2 17 5
13 3 -3 4 -12 1 -19z m-2606 -11 c-10 -9 -11 -8 -5 6 3 10 9 15 12 12 3 -3 0
-11 -7 -18z m49 3 c0 -5 -2 -10 -4 -10 -3 0 -8 5 -11 10 -3 6 -1 10 4 10 6 0
11 -4 11 -10z m-130 -9 c0 11 2 11 10 -1 6 -9 5 -17 -2 -21 -6 -4 -7 -12 -4
-18 4 -7 0 -11 -11 -11 -11 0 -24 -5 -31 -12 -8 -8 -12 -9 -12 -1 0 6 4 13 10
15 5 2 11 15 12 30 2 21 5 24 15 16 10 -8 13 -7 13 3z m2630 -17 c0 -8 -4 -12
-10 -9 -5 3 -10 10 -10 16 0 5 5 9 10 9 6 0 10 -7 10 -16z m-2517 -25 c-8 -8
-13 -7 -18 2 -5 8 -4 10 3 5 7 -4 12 -2 12 5 0 7 3 9 7 6 4 -4 2 -12 -4 -18z
m-33 -7 c0 -5 -7 -17 -15 -28 -15 -19 -20 -8 -9 20 6 17 24 22 24 8z m50 -57
c10 -13 9 -15 -8 -15 -15 0 -20 5 -16 15 4 8 7 15 9 15 1 0 8 -7 15 -15z
m-130 -5 c0 -5 -4 -10 -10 -10 -5 0 -10 5 -10 10 0 6 5 10 10 10 6 0 10 -4 10
-10z m52 -55 c3 -13 1 -22 -3 -19 -5 3 -9 1 -9 -4 0 -6 6 -12 14 -15 8 -3 14
-14 14 -24 0 -10 3 -27 7 -38 6 -17 5 -17 -9 3 -10 12 -14 27 -11 32 3 6 2 10
-3 10 -14 0 -22 -27 -15 -47 4 -11 3 -14 -5 -9 -7 4 -12 16 -12 27 0 10 -4 19
-9 19 -5 0 -11 12 -14 27 -3 19 1 31 17 44 28 24 33 23 38 -6z m-4380 -10 c9
4 19 1 23 -4 3 -6 11 -9 16 -5 5 3 16 0 24 -6 12 -10 15 -9 16 6 0 14 3 12 10
-8 7 -19 15 -25 26 -21 12 5 15 2 10 -10 -4 -11 1 -18 14 -22 10 -4 19 -13 19
-21 0 -8 5 -14 11 -14 5 0 7 5 3 12 -5 7 -3 8 6 3 10 -6 10 -11 -3 -20 -24
-17 -21 -28 3 -15 12 6 20 7 20 1 0 -5 3 -18 6 -28 5 -16 4 -16 -10 1 -15 18
-16 18 -16 2 0 -9 7 -25 16 -34 15 -15 15 -16 -2 -22 -10 -4 -13 -9 -7 -13 18
-11 0 -64 -29 -87 -15 -12 -33 -18 -39 -14 -8 4 -9 -1 -5 -17 7 -22 6 -23 -7
-6 -14 17 -47 14 -47 -5 0 -5 5 -6 10 -3 11 7 14 -8 3 -19 -4 -3 -13 4 -21 16
-13 23 -13 23 -7 -4 4 -21 2 -26 -9 -22 -8 3 -12 12 -9 20 4 12 -4 15 -41 13
-33 -2 -50 2 -57 12 -6 10 -9 11 -9 1 0 -7 -5 -10 -10 -7 -6 4 -8 10 -5 15 3
5 -10 16 -30 26 -19 9 -35 21 -35 27 0 5 9 2 20 -8 11 -10 20 -15 20 -10 0 4
-11 16 -25 27 -35 28 -77 133 -45 113 6 -3 10 1 10 9 0 20 -17 30 -23 14 -4
-10 -6 -10 -6 0 -1 7 6 15 14 18 9 4 20 15 26 26 8 15 8 19 0 14 -6 -4 -11 -2
-11 3 0 6 7 11 15 11 8 0 15 5 15 10 0 6 5 10 11 10 5 0 7 -5 3 -12 -5 -7 -3
-8 5 -4 7 5 10 14 8 20 -3 7 -1 19 5 27 8 11 9 11 5 -3 -4 -12 0 -16 13 -15
10 1 16 5 13 11 -4 5 3 7 15 4 12 -4 20 -2 17 2 -7 11 28 18 36 8 3 -5 13 -6
21 -3z m6958 -21 c0 -8 -5 -12 -10 -9 -6 4 -8 11 -5 16 9 14 15 11 15 -7z
m-2670 -18 c0 -2 -7 -7 -16 -10 -8 -3 -12 -2 -9 4 6 10 25 14 25 6z m-67 -57
c-9 -9 -12 -7 -10 9 1 14 5 18 11 12 7 -7 6 -14 -1 -21z m31 15 c3 -8 2 -12
-4 -9 -6 3 -10 10 -10 16 0 14 7 11 14 -7z m41 6 c3 -5 2 -10 -4 -10 -5 0 -13
5 -16 10 -3 6 -2 10 4 10 5 0 13 -4 16 -10z m-4485 -14 c0 -2 -7 -7 -16 -10
-8 -3 -12 -2 -9 4 6 10 25 14 25 6z m4511 -23 c-8 -15 -10 -15 -11 -2 0 17 10
32 18 25 2 -3 -1 -13 -7 -23z m2539 -37 c0 -5 -7 -1 -15 10 -8 10 -14 24 -14
29 0 6 6 1 14 -9 8 -11 15 -24 15 -30z m-2620 20 c0 -2 -8 -10 -17 -17 -16
-13 -17 -12 -4 4 13 16 21 21 21 13z m2461 -23 c-12 -20 -14 -14 -5 12 4 9 9
14 11 11 3 -2 0 -13 -6 -23z m-2548 -29 c-7 -20 -14 -18 -11 4 2 10 -2 16 -10
14 -8 -1 -11 2 -7 8 10 16 35 -8 28 -26z m2563 -11 c-11 -11 -17 4 -9 23 7 18
8 18 11 1 2 -10 1 -21 -2 -24z m-2523 20 c-7 -2 -13 -11 -13 -18 0 -8 -4 -16
-9 -19 -5 -4 -8 2 -6 11 2 10 4 21 4 26 1 4 9 7 19 6 10 0 12 -3 5 -6z m-122
-70 c13 -16 12 -17 -3 -4 -10 7 -18 15 -18 17 0 8 8 3 21 -13z m67 -13 c0 -16
-4 -33 -10 -36 -7 -5 -9 -1 -5 9 3 9 2 19 -3 22 -10 6 -2 35 10 35 4 0 7 -13
8 -30z m-4308 -10 c0 -5 -4 -10 -10 -10 -5 0 -10 5 -10 10 0 6 5 10 10 10 6 0
10 -4 10 -10z m4194 -36 c3 -8 2 -12 -4 -9 -6 3 -10 10 -10 16 0 14 7 11 14
-7z m96 -24 c0 -5 -5 -10 -11 -10 -5 0 -7 5 -4 10 3 6 8 10 11 10 2 0 4 -4 4
-10z m-946 -43 c-8 -21 -23 -22 -31 -1 -7 18 17 38 30 25 4 -4 5 -15 1 -24z
m986 22 c12 -9 10 -10 -8 -6 -20 5 -23 2 -19 -15 4 -15 3 -18 -5 -10 -11 11
-4 42 9 42 4 0 15 -5 23 -11z m-97 -25 c-4 -12 -8 -13 -14 -3 -9 15 -2 32 11
24 5 -3 6 -13 3 -21z m2497 16 c0 -5 -5 -10 -11 -10 -5 0 -7 5 -4 10 3 6 8 10
11 10 2 0 4 -4 4 -10z m438 -7 c-5 -26 -38 -29 -38 -4 0 15 6 21 21 21 14 0
19 -5 17 -17z m-4148 -9 c0 -8 -5 -12 -10 -9 -6 4 -8 11 -5 16 9 14 15 11 15
-7z m1190 -22 c0 -1 -9 2 -20 8 -11 6 -20 15 -20 20 0 6 9 2 20 -7 11 -10 20
-19 20 -21z m-106 -26 c-5 -14 -9 -15 -15 -5 -5 8 -3 17 4 21 15 9 19 4 11
-16z m175 2 c-12 -23 -21 -24 -12 -1 5 12 3 14 -7 8 -8 -5 -11 -4 -7 2 3 5 13
10 21 10 11 0 13 -5 5 -19z m2446 2 c3 -5 1 -10 -4 -10 -6 0 -11 5 -11 10 0 6
2 10 4 10 3 0 8 -4 11 -10z m645 -10 c0 -11 -7 -20 -15 -20 -8 0 -15 9 -15 20
0 11 7 20 15 20 8 0 15 -9 15 -20z m-703 -12 c-3 -8 -6 -5 -6 6 -1 11 2 17 5
13 3 -3 4 -12 1 -19z m-2512 -18 c-3 -5 -12 -10 -18 -10 -7 0 -6 4 3 10 19 12
23 12 15 0z m91 -28 c-4 -3 -11 0 -16 8 -15 24 -11 33 6 15 9 -9 13 -19 10
-23z m61 24 c-5 -15 -24 -18 -24 -3 0 8 6 14 14 14 7 0 12 -5 10 -11z m2653 4
c0 -5 -4 -10 -10 -10 -5 0 -10 5 -10 10 0 6 5 10 10 10 6 0 10 -4 10 -10z
m-310 -10 c0 -5 -5 -10 -11 -10 -5 0 -7 5 -4 10 3 6 8 10 11 10 2 0 4 -4 4
-10z m-2560 -10 c0 -5 -2 -10 -4 -10 -3 0 -8 5 -11 10 -3 6 -1 10 4 10 6 0 11
-4 11 -10z m-170 -10 c0 -5 -4 -10 -10 -10 -5 0 -10 5 -10 10 0 6 5 10 10 10
6 0 10 -4 10 -10z m133 -21 c-4 -15 -9 -17 -19 -8 -16 13 -7 40 11 33 7 -3 11
-14 8 -25z m155 9 c-7 -13 -17 -26 -21 -29 -5 -3 -1 -13 7 -22 15 -15 22 -47
10 -47 -3 0 -14 4 -24 10 -20 11 -27 81 -6 77 6 -1 10 6 8 16 -2 11 4 17 18
17 18 0 19 -2 8 -22z m2412 7 c0 -2 -7 -5 -15 -9 -9 -3 -15 0 -15 9 0 9 6 12
15 9 8 -4 15 -7 15 -9z m10 -25 c0 -5 -4 -10 -10 -10 -5 0 -10 5 -10 10 0 6 5
10 10 10 6 0 10 -4 10 -10z m-2496 -35 c16 -24 16 -25 -4 -25 -17 0 -20 4 -15
21 5 15 4 19 -4 15 -6 -4 -11 -2 -11 3 0 19 17 12 34 -14z m2470 16 c3 -5 -1
-14 -8 -20 -12 -10 -13 -8 -9 8 6 23 9 25 17 12z m-2507 -27 c-3 -3 -12 -4
-19 -1 -8 3 -5 6 6 6 11 1 17 -2 13 -5z m2508 -32 c-3 -3 -11 0 -18 7 -9 10
-8 11 6 5 10 -3 15 -9 12 -12z m-2495 -3 c0 -4 -9 -7 -19 -6 -11 0 -18 4 -16
7 6 9 35 8 35 -1z m2693 -11 c6 -22 -9 -41 -25 -32 -10 6 -11 38 -1 47 12 12
21 7 26 -15z m-2773 2 c0 -5 -7 -10 -16 -10 -8 0 -12 5 -9 10 3 6 10 10 16 10
5 0 9 -4 9 -10z m2569 -54 c-2 -21 -2 -21 -6 1 -3 14 -9 20 -19 16 -7 -3 -12
-9 -9 -13 3 -4 -2 -10 -10 -14 -21 -8 -19 6 4 31 11 11 16 25 13 29 -4 5 1 1
11 -9 9 -11 16 -29 16 -41z m-2476 19 c4 -8 2 -17 -3 -20 -6 -4 -10 3 -10 14
0 25 6 27 13 6z m-63 -25 c0 -6 -4 -10 -10 -10 -5 0 -10 5 -10 11 0 6 -7 9
-15 5 -15 -5 -21 5 -9 17 9 8 44 -11 44 -23z m25 20 c3 -5 -1 -10 -9 -10 -9 0
-16 5 -16 10 0 6 4 10 9 10 6 0 13 -4 16 -10z m2433 -7 c-2 -10 -10 -17 -18
-15 -11 3 -11 0 0 -13 7 -8 10 -18 6 -22 -3 -3 -6 -1 -6 5 0 6 -6 9 -13 6 -19
-7 -15 35 4 47 22 14 31 11 27 -8z m839 -48 c-6 -17 -34 -17 -41 1 -3 9 -1 23
6 31 10 13 14 12 25 -3 7 -10 12 -23 10 -29z m-3257 26 c0 -6 -4 -13 -10 -16
-5 -3 -10 1 -10 9 0 9 5 16 10 16 6 0 10 -4 10 -9z m118 -50 c2 -33 -15 -51
-29 -30 -14 23 -10 32 8 18 15 -13 15 -12 5 8 -9 16 -9 23 1 26 6 3 12 6 12 6
1 1 2 -12 3 -28z m-103 -1 c3 -6 -1 -7 -9 -4 -18 7 -21 14 -7 14 6 0 13 -4 16
-10z m-104 -30 c13 7 19 7 19 0 0 -5 -7 -10 -16 -10 -8 0 -12 -4 -9 -10 3 -5
2 -10 -3 -10 -6 0 -13 7 -16 16 -3 8 -10 12 -16 9 -11 -7 -14 8 -3 19 4 3 11
0 15 -9 7 -12 14 -13 29 -5z m91 6 c7 4 8 2 4 -5 -9 -13 -26 -5 -25 12 0 9 2
8 6 -1 2 -6 10 -9 15 -6z m2368 -16 c-6 -4 -11 -11 -10 -16 1 -5 -3 -10 -9
-12 -8 -3 -8 4 0 22 7 14 16 23 22 19 5 -3 4 -8 -3 -13z m-2394 -5 c18 -13 18
-14 -4 -8 -12 3 -25 9 -28 14 -8 14 10 11 32 -6z m-13 -44 c-6 -3 -13 -16 -17
-28 -6 -17 -3 -23 8 -23 9 0 16 -4 16 -10 0 -12 -22 -9 -32 5 -9 12 2 68 16
77 6 4 13 2 15 -3 2 -6 -1 -14 -6 -18z m2437 20 c0 -6 -4 -12 -8 -15 -5 -3 -9
1 -9 9 0 8 4 15 9 15 4 0 8 -4 8 -9z m-2592 -51 c-19 -38 -38 -53 -38 -29 0 5
4 8 9 5 4 -3 14 12 21 34 7 22 16 37 20 35 4 -3 -1 -23 -12 -45z m2536 25 c3
-8 1 -15 -3 -15 -5 0 -11 7 -15 15 -3 8 -1 15 3 15 5 0 11 -7 15 -15z m-2351
-12 c-5 -14 -1 -15 25 -10 18 4 32 2 32 -3 0 -14 -40 -23 -54 -11 -7 6 -16 8
-19 4 -4 -3 -7 -2 -7 3 0 9 20 34 27 34 1 0 0 -7 -4 -17z m-122 -30 c-12 -20
-14 -14 -5 12 4 9 9 14 11 11 3 -2 0 -13 -6 -23z m2452 -4 c-3 -10 -11 -15
-18 -12 -17 6 -9 30 9 30 8 0 11 -8 9 -18z m-2223 -25 c0 -18 -26 -18 -33 0
-3 8 -3 16 0 19 9 10 33 -5 33 -19z m-194 -9 c-1 -25 -7 -31 -19 -19 -4 5 13
44 19 44 1 0 1 -11 0 -25z m122 8 c-6 -8 -22 -13 -35 -10 -12 2 -20 1 -18 -3
3 -5 -6 -7 -20 -6 -29 1 -34 16 -6 16 11 0 22 3 24 8 3 4 19 7 36 8 26 1 29
-1 19 -13z m2182 2 c9 -11 7 -19 -14 -40 -14 -14 -31 -25 -38 -25 -10 0 -10 2
-1 8 10 6 10 12 -2 28 -15 19 -15 19 -8 -1 6 -19 6 -19 -10 -3 -25 25 -25 25
32 30 11 1 17 6 15 10 -9 14 13 8 26 -7z m35 -3 c-3 -3 -11 0 -18 7 -9 10 -8
11 6 5 10 -3 15 -9 12 -12z m-2972 -4 c14 -11 15 -17 4 -38 -7 -14 -23 -26
-35 -28 -18 -3 -22 1 -22 21 0 54 19 70 53 45z m557 -19 c0 -6 -4 -7 -10 -4
-5 3 -10 11 -10 16 0 6 5 7 10 4 6 -3 10 -11 10 -16z m191 -9 c27 -15 24 -30
-6 -30 -18 0 -25 5 -25 20 0 23 4 24 31 10z m-151 -10 c8 -5 11 -10 5 -10 -5
0 -17 5 -25 10 -8 5 -10 10 -5 10 6 0 17 -5 25 -10z m97 -12 c-1 -39 5 -58 18
-58 8 0 15 8 16 18 0 10 3 12 6 5 7 -20 22 -15 48 15 13 15 27 24 31 20 4 -5
-1 -17 -11 -29 -14 -14 -16 -22 -8 -27 8 -5 6 -15 -7 -32 -11 -14 -20 -19 -20
-12 0 6 -7 12 -15 12 -8 0 -15 5 -15 11 0 5 -5 7 -10 4 -7 -4 -7 -12 0 -24 13
-25 0 -35 -16 -13 -12 16 -14 16 -28 -3 -13 -17 -15 -18 -16 -3 0 9 9 20 20
23 11 4 18 11 14 16 -3 5 -10 7 -15 4 -5 -4 -9 -1 -9 4 0 6 -6 11 -14 11 -7 0
-16 9 -19 21 -4 13 -10 18 -18 13 -8 -4 -10 -3 -5 4 4 7 21 16 39 21 18 5 33
10 33 10 1 1 2 -5 1 -11z m-133 -33 c-9 -13 -13 -29 -10 -34 4 -5 2 -12 -4
-16 -6 -4 -8 -9 -6 -13 2 -4 -9 -7 -25 -7 -16 0 -29 3 -29 8 0 4 11 7 25 7 28
0 34 26 13 50 -10 11 -9 11 6 0 18 -14 19 -13 14 5 -4 15 0 21 13 22 17 2 18
0 3 -22z m-468 -22 c-11 -11 -19 6 -11 24 8 17 8 17 12 0 3 -10 2 -21 -1 -24z
m2724 22 c0 -1 -12 -2 -26 -2 -17 0 -22 2 -13 7 10 7 39 3 39 -5z m-2227 -10
c-3 -9 -8 -14 -10 -11 -3 3 -2 9 2 15 9 16 15 13 8 -4z m237 0 c0 -8 10 -20
22 -26 17 -9 24 -9 33 5 15 20 26 21 19 1 -4 -8 -1 -15 5 -15 6 0 11 -4 11
-10 0 -5 -6 -10 -14 -10 -8 0 -19 -15 -25 -32 -10 -28 -9 -35 4 -43 44 -27 46
-30 20 -31 -16 -1 -25 3 -25 12 0 8 -7 17 -15 20 -8 4 -15 15 -15 25 0 10 -5
19 -10 19 -7 0 -7 6 -1 18 7 12 4 24 -10 41 -21 26 -24 41 -9 41 6 0 10 -7 10
-15z m-182 -22 c9 -16 9 -22 -2 -26 -11 -4 -14 2 -14 24 1 16 2 28 3 27 1 -2
7 -13 13 -25z m-123 -3 c3 -5 2 -10 -4 -10 -5 0 -13 5 -16 10 -3 6 -2 10 4 10
5 0 13 -4 16 -10z m295 -26 c0 -8 -5 -12 -10 -9 -6 4 -8 11 -5 16 9 14 15 11
15 -7z m1874 -19 c-4 -8 -8 -15 -10 -15 -2 0 -4 7 -4 15 0 8 4 15 10 15 5 0 7
-7 4 -15z m56 8 c-14 -3 -28 -10 -32 -17 -5 -7 -8 -7 -8 0 0 17 12 24 39 23
l26 -2 -25 -4z m-2215 -13 c3 -5 1 -10 -4 -10 -6 0 -11 5 -11 10 0 6 2 10 4
10 3 0 8 -4 11 -10z m40 0 c3 -5 1 -10 -4 -10 -6 0 -11 5 -11 10 0 6 2 10 4
10 3 0 8 -4 11 -10z m39 -6 c5 -14 4 -15 -9 -4 -17 14 -19 20 -6 20 5 0 12 -7
15 -16z m166 -4 c0 -5 -2 -10 -4 -10 -3 0 -8 5 -11 10 -3 6 -1 10 4 10 6 0 11
-4 11 -10z m30 -10 c0 -5 -2 -10 -4 -10 -3 0 -8 5 -11 10 -3 6 -1 10 4 10 6 0
11 -4 11 -10z m-210 -10 c0 -5 -5 -10 -11 -10 -5 0 -7 5 -4 10 3 6 8 10 11 10
2 0 4 -4 4 -10z m100 -5 c0 -8 -7 -15 -16 -15 -14 0 -14 3 -4 15 7 8 14 15 16
15 2 0 4 -7 4 -15z m1970 -4 c-15 -4 -25 -15 -26 -26 -2 -34 -4 -35 -24 -15
-21 21 -27 35 -11 25 6 -3 16 1 23 9 7 9 24 15 38 15 l25 -1 -25 -7z m-2160
-11 c0 -5 -2 -10 -4 -10 -3 0 -8 5 -11 10 -3 6 -1 10 4 10 6 0 11 -4 11 -10z
m290 1 c0 -5 -5 -11 -11 -13 -6 -2 -12 -24 -13 -50 -1 -48 -20 -57 -29 -13 -2
14 0 22 4 19 13 -8 11 30 -2 43 -9 9 -7 10 10 6 12 -3 21 -1 21 6 0 6 5 11 10
11 6 0 10 -4 10 -9z m-122 -16 c3 -3 -4 -5 -16 -5 -11 0 -23 4 -27 9 -6 10 33
6 43 -4z m38 -11 c-4 -9 -9 -15 -11 -12 -3 3 -3 13 1 22 4 9 9 15 11 12 3 -3
3 -13 -1 -22z m1984 4 c0 -4 -5 -8 -11 -8 -6 0 -9 -7 -6 -14 4 -10 1 -13 -7
-10 -18 7 -9 41 10 41 8 0 14 -4 14 -9z m-2230 -8 c13 -8 12 -10 -2 -10 -10 0
-18 -5 -18 -11 0 -6 9 -8 23 -4 20 5 19 4 -6 -15 -15 -12 -24 -27 -20 -33 4
-6 0 -8 -10 -4 -9 3 -19 1 -23 -5 -12 -19 -26 20 -15 41 6 10 7 21 4 25 -3 3
3 6 15 6 12 0 22 5 22 10 0 13 11 13 30 0z m114 -19 c4 -5 -3 -7 -14 -4 -23 6
-26 13 -6 13 8 0 17 -4 20 -9z m269 -33 c-6 -12 -33 -10 -33 2 0 6 5 10 10 10
6 0 9 3 9 8 -3 20 3 25 10 7 5 -11 7 -23 4 -27z m54 15 c2 -6 -4 -10 -14 -9
-18 1 -33 14 -33 28 0 11 43 -7 47 -19z m-206 -18 c5 3 6 -1 2 -10 -5 -13 -7
-14 -14 -3 -5 7 -8 20 -8 28 1 11 3 10 6 -3 2 -9 9 -15 14 -12z m-1283 -2 c-5
-25 -28 -28 -28 -4 0 12 6 21 16 21 9 0 14 -7 12 -17z m1322 -9 c0 -8 -4 -12
-10 -9 -5 3 -10 10 -10 16 0 5 5 9 10 9 6 0 10 -7 10 -16z m161 -20 c13 -12
17 -25 13 -48 -4 -24 -3 -27 5 -16 6 8 11 12 11 7 0 -4 11 0 24 8 16 11 26 13
31 6 3 -6 -2 -11 -13 -11 -11 0 -23 -7 -26 -16 -11 -28 -7 -35 14 -24 11 6 20
7 20 3 -1 -14 -40 -59 -40 -46 0 7 -6 10 -13 7 -8 -3 -20 3 -28 12 -13 15 -12
16 11 9 22 -7 23 -6 12 8 -8 9 -20 13 -27 11 -10 -4 -13 2 -12 23 2 22 -3 29
-20 31 -12 2 -27 10 -34 18 -11 13 -9 14 17 8 16 -3 33 -11 39 -15 5 -5 13 -9
19 -9 5 0 0 9 -12 20 -12 12 -22 23 -22 25 0 10 14 5 31 -11z m-346 -5 c10
-14 1 -21 -19 -13 -9 3 -13 10 -10 15 7 12 21 11 29 -2z m255 1 c0 -5 -4 -10
-10 -10 -5 0 -10 5 -10 10 0 6 5 10 10 10 6 0 10 -4 10 -10z m168 -2 c-2 -6
-10 -14 -16 -16 -7 -2 -10 2 -6 12 7 18 28 22 22 4z m-218 -8 c-11 -7 -11 -10
-2 -10 7 0 10 -5 7 -10 -4 -6 -11 -8 -16 -4 -5 3 -16 1 -24 -6 -10 -8 -19 -8
-34 0 -12 6 -21 13 -21 16 0 2 9 0 21 -7 17 -9 24 -7 40 10 11 12 25 21 32 21
7 0 6 -4 -3 -10z m-120 -31 c0 -10 -4 -19 -10 -19 -5 0 -7 7 -4 15 4 8 1 15
-5 15 -6 0 -11 4 -11 10 0 5 7 7 15 4 8 -4 15 -15 15 -25z m1858 -4 c0 -32 -7
-27 -14 10 -2 14 -1 24 4 21 5 -3 10 -17 10 -31z m-1469 -14 c-15 -5 -22 6
-14 19 6 9 10 9 16 -1 5 -8 4 -15 -2 -18z m-2532 -13 c-3 -8 -6 -5 -6 6 -1 11
2 17 5 13 3 -3 4 -12 1 -19z m2300 0 c0 -13 -1 -17 -4 -10 -3 6 -11 12 -19 12
-8 0 -14 5 -14 10 0 6 8 10 18 10 11 0 18 -8 19 -22z m-377 -12 c0 -3 -4 -8
-10 -11 -5 -3 -10 -1 -10 4 0 6 5 11 10 11 6 0 10 -2 10 -4z m240 -16 c-24
-15 -36 -11 -14 4 10 8 21 12 24 10 2 -3 -2 -9 -10 -14z m45 0 c-3 -5 -11 -10
-16 -10 -6 0 -7 5 -4 10 3 6 11 10 16 10 6 0 7 -4 4 -10z m145 -12 c0 -17 -3
-20 -9 -9 -5 8 -16 11 -25 8 -9 -4 -16 -2 -16 2 0 10 17 19 38 20 6 1 12 -9
12 -21z m40 -19 c0 -18 -18 -9 -23 12 -4 16 -3 18 9 8 8 -6 14 -15 14 -20z
m-135 11 c-3 -5 -10 -10 -16 -10 -5 0 -9 5 -9 10 0 6 7 10 16 10 8 0 12 -4 9
-10z m1625 -11 c0 -4 -7 -6 -15 -3 -8 4 -15 10 -15 15 0 4 7 6 15 3 8 -4 15
-10 15 -15z m-3907 -15 c-8 -20 -22 -17 -20 5 0 10 7 17 13 14 7 -3 10 -11 7
-19z m2157 22 c0 -9 -30 -14 -35 -6 -4 6 3 10 14 10 12 0 21 -2 21 -4z m83
-10 c6 -15 -1 -26 -15 -26 -4 0 -8 9 -8 20 0 23 15 27 23 6z m-153 -6 c0 -5
-5 -10 -11 -10 -5 0 -7 5 -4 10 3 6 8 10 11 10 2 0 4 -4 4 -10z m100 -9 c0
-17 -18 -21 -24 -6 -3 9 0 15 9 15 8 0 15 -4 15 -9z m133 -4 c3 -8 -3 -14 -15
-14 -16 -2 -17 1 -8 13 15 17 17 17 23 1z m389 -17 c6 0 6 -6 -2 -15 -7 -8
-21 -15 -31 -15 -11 0 -19 -4 -19 -10 0 -5 10 -10 23 -10 12 0 17 -3 11 -8
-16 -10 -37 -53 -29 -60 3 -4 10 0 15 8 6 8 10 11 10 5 0 -5 -5 -17 -11 -25
-8 -11 -12 -12 -16 -2 -2 7 -11 19 -19 26 -8 8 -14 25 -15 38 0 13 -3 17 -6
11 -2 -7 -18 -13 -34 -13 -17 0 -28 4 -24 10 3 5 12 7 20 4 8 -4 18 1 21 10 3
9 10 13 16 10 14 -9 48 26 48 48 0 18 1 18 16 4 8 -9 20 -16 26 -16z m-568 12
c3 -5 -1 -9 -9 -9 -8 0 -12 4 -9 9 3 4 7 8 9 8 2 0 6 -4 9 -8z m261 -13 c-4
-5 3 -19 16 -30 12 -10 19 -19 15 -19 -12 0 -60 40 -50 41 5 1 -2 5 -16 9 -24
8 -23 8 8 9 21 1 31 -3 27 -10z m69 -16 c12 -24 12 -30 0 -40 -20 -19 -27 -16
-20 11 4 15 1 26 -6 28 -6 2 -8 10 -4 16 10 17 14 15 30 -15z m46 12 c-7 -8
-17 -15 -22 -15 -11 0 14 29 26 30 5 0 3 -7 -4 -15z m125 6 c3 -5 1 -12 -5
-16 -5 -3 -10 1 -10 9 0 18 6 21 15 7z m1188 -4 c4 -10 -4 -14 -24 -14 -30 0
-39 11 -16 20 22 9 35 7 40 -6z m-1583 -22 c0 -14 -2 -25 -4 -25 -2 0 -6 11
-8 25 -3 14 -1 25 3 25 5 0 9 -11 9 -25z m60 5 c0 -5 -4 -10 -10 -10 -5 0 -10
5 -10 10 0 6 5 10 10 10 6 0 10 -4 10 -10z m-182 -17 c-7 -9 -7 -13 1 -13 6 0
11 -4 11 -10 0 -11 -30 -13 -54 -4 -8 3 -12 12 -9 21 4 11 2 14 -5 9 -7 -4
-19 -3 -28 2 -11 6 2 9 39 8 44 0 53 -3 45 -13z m460 1 c4 -4 -1 -5 -10 -1
-10 3 -19 -1 -23 -11 -5 -13 -8 -14 -14 -3 -6 8 -14 10 -22 5 -12 -6 -12 -5
-1 8 12 15 57 17 70 2z m1175 1 c-3 -9 -8 -14 -10 -11 -3 3 -2 9 2 15 9 16 15
13 8 -4z m27 -15 c0 -5 -2 -10 -4 -10 -3 0 -8 5 -11 10 -3 6 -1 10 4 10 6 0
11 -4 11 -10z m-1505 -10 c3 -6 -1 -7 -9 -4 -9 3 -16 1 -16 -5 0 -14 -27 -15
-35 -1 -3 5 0 7 8 4 8 -3 18 -1 22 5 8 14 22 14 30 1z m85 -8 c0 -4 -9 -8 -19
-8 -11 0 -17 4 -15 8 3 4 12 8 20 8 8 0 14 -4 14 -8z m364 -7 c-4 -8 -15 -15
-26 -15 -17 0 -18 3 -8 15 7 8 19 15 26 15 8 0 11 -6 8 -15z m846 5 c13 -7 21
-7 25 0 10 17 25 11 18 -7 -5 -14 -1 -15 28 -10 21 4 29 4 20 -2 -7 -5 -11
-14 -7 -20 8 -12 -11 -6 -54 16 -30 15 -43 17 -35 3 3 -5 0 -7 -8 -4 -7 2 -14
11 -14 19 0 18 3 18 27 5z m190 0 c0 -5 -5 -10 -11 -10 -5 0 -7 5 -4 10 3 6 8
10 11 10 2 0 4 -4 4 -10z m-1262 -19 c3 -8 -1 -12 -9 -9 -7 2 -15 10 -17 17
-3 8 1 12 9 9 7 -2 15 -10 17 -17z m-951 -11 c4 -23 -12 -41 -30 -34 -17 6
-23 35 -10 48 11 11 38 2 40 -14z m537 -11 c-3 -5 -1 -9 4 -9 6 0 13 7 16 16
4 9 9 14 12 11 3 -3 -2 -16 -11 -30 -10 -16 -12 -27 -6 -31 12 -8 3 -36 -11
-36 -6 0 -5 6 2 15 7 8 8 15 4 15 -5 0 -15 -9 -22 -20 -7 -12 -18 -17 -29 -14
-15 5 -15 4 -3 -4 8 -6 18 -8 22 -6 4 3 8 0 8 -5 0 -15 -26 -14 -36 2 -9 11
-9 23 -5 70 0 9 8 17 16 17 8 0 14 3 14 8 -3 16 2 21 16 16 8 -4 12 -10 9 -15z
m86 10 c0 -15 -18 -19 -23 -6 -3 8 1 14 9 14 8 0 14 -4 14 -8z m210 7 c0 -3
-4 -8 -10 -11 -5 -3 -10 -1 -10 4 0 6 5 11 10 11 6 0 10 -2 10 -4z m365 -6 c3
-5 1 -10 -4 -10 -6 0 -11 5 -11 10 0 6 2 10 4 10 3 0 8 -4 11 -10z m-288 -22
c-3 -8 -6 -5 -6 6 -1 11 2 17 5 13 3 -3 4 -12 1 -19z m263 8 c0 -2 -7 -7 -16
-10 -8 -3 -12 -2 -9 4 6 10 25 14 25 6z m-380 -37 c0 -6 -4 -7 -10 -4 -5 3
-10 11 -10 16 0 6 5 7 10 4 6 -3 10 -11 10 -16z m155 11 c3 -5 2 -10 -4 -10
-5 0 -13 5 -16 10 -3 6 -2 10 4 10 5 0 13 -4 16 -10z m59 -21 c-6 -10 -44 -13
-44 -4 0 3 6 12 13 19 13 15 41 1 31 -15z m1096 21 c0 -5 -5 -10 -11 -10 -5 0
-7 5 -4 10 3 6 8 10 11 10 2 0 4 -4 4 -10z m-1057 -20 c-3 -12 -8 -19 -11 -16
-5 6 5 36 12 36 2 0 2 -9 -1 -20z m57 -1 c0 -6 -4 -7 -10 -4 -5 3 -10 11 -10
16 0 6 5 7 10 4 6 -3 10 -11 10 -16z m910 -9 c0 -5 -2 -10 -4 -10 -3 0 -8 5
-11 10 -3 6 -1 10 4 10 6 0 11 -4 11 -10z m882 -5 c0 -5 -5 -11 -11 -13 -6 -2
-11 4 -11 13 0 9 5 15 11 13 6 -2 11 -8 11 -13z m-2118 -11 c3 -8 2 -12 -4 -9
-6 3 -10 10 -10 16 0 14 7 11 14 -7z m293 -6 c-3 -8 -6 -5 -6 6 -1 11 2 17 5
13 3 -3 4 -12 1 -19z m-177 2 c0 -5 -2 -10 -4 -10 -3 0 -8 5 -11 10 -3 6 -1
10 4 10 6 0 11 -4 11 -10z m103 -3 c2 -6 -1 -17 -8 -24 -10 -9 -17 -8 -31 3
-18 14 -18 15 3 9 18 -5 22 -3 17 9 -3 9 -2 16 4 16 5 0 12 -6 15 -13z m-76
-12 c0 -8 -4 -15 -9 -15 -10 0 -11 14 -1 23 9 10 10 9 10 -8z m906 -6 c-4 -15
-8 -17 -14 -8 -6 11 4 28 18 29 0 0 -1 -9 -4 -21z m-945 -9 c4 -12 2 -13 -9
-3 -12 10 -15 8 -15 -8 0 -11 5 -18 13 -15 7 3 10 -1 7 -9 -3 -7 -13 -16 -22
-20 -9 -3 -13 -3 -10 0 4 4 2 18 -3 32 -5 14 -6 29 -3 34 8 14 36 7 42 -11z
m-178 6 c0 -2 -7 -7 -16 -10 -8 -3 -12 -2 -9 4 6 10 25 14 25 6z m430 -17 c0
-6 -4 -7 -10 -4 -5 3 -10 11 -10 16 0 6 5 7 10 4 6 -3 10 -11 10 -16z m120 0
c-9 -15 -8 -24 1 -35 10 -13 10 -17 0 -24 -9 -5 -10 -10 -2 -14 6 -4 11 -14
11 -22 0 -12 -5 -12 -32 2 -23 12 -28 19 -18 22 15 5 30 21 30 33 0 3 -10 11
-22 17 l-23 11 23 0 c12 1 21 4 21 9 -3 15 1 22 11 22 7 0 7 -7 0 -21z m-520
7 c0 -3 -4 -8 -10 -11 -5 -3 -10 -1 -10 4 0 6 5 11 10 11 6 0 10 -2 10 -4z
m348 -18 c10 -14 10 -53 -1 -64 -4 -4 -7 -3 -7 3 0 5 -13 10 -29 10 -22 0 -27
-4 -24 -18 3 -9 0 -20 -6 -23 -7 -5 -11 3 -11 19 0 14 7 28 15 31 8 4 15 14
15 23 0 13 -2 13 -9 2 -5 -8 -11 -9 -15 -3 -8 13 17 22 34 12 11 -7 11 -11 1
-24 -18 -21 -6 -20 18 1 19 15 19 17 3 29 -9 8 -12 14 -6 14 6 0 16 -6 22 -12z
m100 -10 c-2 -7 3 -12 10 -10 6 1 12 -2 12 -8 0 -5 -4 -10 -9 -10 -11 0 -41
-56 -41 -77 0 -7 -5 -13 -11 -13 -7 0 -9 10 -5 25 4 14 2 25 -3 25 -12 0 -9
51 4 67 13 16 46 16 43 1z m-503 -17 c3 -5 1 -12 -5 -16 -5 -3 -10 1 -10 9 0
18 6 21 15 7z m916 -20 c15 -17 17 -22 6 -18 -9 3 -18 1 -20 -6 -3 -9 -8 -9
-20 2 -9 7 -14 17 -11 22 3 5 -4 9 -15 9 -15 0 -19 -4 -14 -17 4 -11 3 -14 -6
-9 -7 5 -21 0 -32 -10 -26 -23 -24 -9 4 26 28 37 77 38 108 1z m-765 -18 c-4
-4 -11 -1 -16 7 -16 25 -11 35 7 17 9 -9 13 -20 9 -24z m-216 23 c0 -3 -4 -8
-10 -11 -5 -3 -10 -1 -10 4 0 6 5 11 10 11 6 0 10 -2 10 -4z m270 -6 c0 -5 -5
-10 -11 -10 -5 0 -7 5 -4 10 3 6 8 10 11 10 2 0 4 -4 4 -10z m-140 -20 c0 -5
-9 -6 -20 -3 -11 3 -17 9 -15 14 7 10 35 1 35 -11z m715 10 c-3 -5 -11 -10
-16 -10 -6 0 -7 5 -4 10 3 6 11 10 16 10 6 0 7 -4 4 -10z m-501 -24 c-10 -8
-21 -12 -24 -9 -3 2 4 11 14 19 11 7 22 12 25 9 2 -3 -4 -12 -15 -19z m-179 4
c-3 -5 -10 -10 -16 -10 -5 0 -9 5 -9 10 0 6 7 10 16 10 8 0 12 -4 9 -10z m105
6 c0 -3 -4 -8 -10 -11 -5 -3 -10 -1 -10 4 0 6 5 11 10 11 6 0 10 -2 10 -4z
m176 -11 c12 -12 12 -15 2 -16 -7 0 -3 -5 10 -11 22 -11 30 -28 12 -28 -5 0
-10 4 -10 9 0 5 -8 12 -18 15 -10 3 -18 15 -18 26 0 24 3 25 22 5z m316 8 c-6
-2 -9 -9 -6 -15 4 -6 1 -9 -6 -6 -24 8 -23 28 2 27 13 0 17 -3 10 -6z m162
-14 c-3 -5 2 -6 10 -3 9 3 16 1 16 -5 0 -6 -5 -11 -11 -11 -5 0 -7 -5 -4 -10
4 -6 11 -8 16 -5 5 4 6 -2 2 -11 -4 -11 -8 -13 -11 -6 -2 7 -8 10 -13 6 -5 -3
-9 0 -9 6 0 7 -6 10 -14 7 -10 -4 -12 0 -9 14 3 10 0 19 -6 19 -6 0 -11 4 -11
9 0 4 11 6 25 3 14 -2 22 -8 19 -13z m96 13 c0 -5 -12 -14 -27 -21 l-28 -12
25 21 c29 22 30 23 30 12z m-939 -25 c-10 -9 -11 -8 -5 6 3 10 9 15 12 12 3
-3 0 -11 -7 -18z m144 -6 c-3 -6 -14 -11 -23 -11 -13 0 -13 2 4 14 21 15 30
14 19 -3z m400 9 c3 -5 1 -10 -4 -10 -6 0 -11 5 -11 10 0 6 2 10 4 10 3 0 8
-4 11 -10z m-735 -10 c0 -5 -2 -10 -4 -10 -3 0 -8 5 -11 10 -3 6 -1 10 4 10 6
0 11 -4 11 -10z m250 -15 c7 -9 8 -15 2 -15 -5 0 -12 7 -16 15 -3 8 -4 15 -2
15 2 0 9 -7 16 -15z m260 5 c4 0 11 -7 14 -16 4 -12 1 -14 -14 -9 -14 5 -20 2
-20 -9 0 -18 -8 -20 -28 -7 -12 7 -12 12 0 30 7 12 19 19 26 16 8 -3 17 -5 22
-5z m-310 -16 c0 -8 -5 -12 -10 -9 -6 4 -8 11 -5 16 9 14 15 11 15 -7z m506 8
c-3 -5 1 -20 9 -35 8 -15 10 -27 5 -27 -5 0 -12 9 -15 20 -4 11 -11 17 -17 14
-7 -5 -8 -2 -3 6 4 7 2 16 -6 21 -10 6 -8 9 9 9 13 0 21 -4 18 -8z m-6640 -49
c-11 -11 -19 6 -11 24 8 17 8 17 12 0 3 -10 2 -21 -1 -24z m6888 31 c9 -3 16
-14 15 -23 0 -10 -2 -11 -6 -3 -2 6 -11 12 -19 12 -8 0 -14 5 -14 10 0 12 3
12 24 4z m51 -4 c3 -5 1 -10 -4 -10 -6 0 -11 5 -11 10 0 6 2 10 4 10 3 0 8 -4
11 -10z m-7172 -25 c36 -25 39 -30 39 -80 0 -41 -2 -46 -12 -40 -5 3 -10 -2
-10 -12 0 -21 -54 -49 -85 -44 -11 2 -32 10 -47 19 -24 14 -28 23 -28 62 0 27
8 58 19 77 17 27 32 36 76 42 6 0 27 -10 48 -24z m6601 0 c3 -8 1 -15 -3 -15
-5 0 -11 7 -15 15 -3 8 -1 15 3 15 5 0 11 -7 15 -15z m220 -11 c7 -17 -6 -18
-22 -2 -7 7 -12 15 -12 20 0 12 28 -2 34 -18z m106 16 c0 -5 -2 -10 -4 -10 -3
0 -8 5 -11 10 -3 6 -1 10 4 10 6 0 11 -4 11 -10z m-185 -10 c3 -5 -3 -10 -15
-10 -12 0 -18 5 -15 10 3 6 10 10 15 10 5 0 12 -4 15 -10z m359 -12 c13 -7 15
-13 7 -21 -8 -8 -16 -7 -28 5 -15 16 -17 16 -31 0 -13 -16 -13 -16 -7 2 3 11
0 23 -7 28 -17 11 40 -1 66 -14z m-542 -3 c0 -5 -5 -11 -11 -13 -6 -2 -11 4
-11 13 0 9 5 15 11 13 6 -2 11 -8 11 -13z m-245 -1 c-3 -3 -12 -4 -19 -1 -8 3
-5 6 6 6 11 1 17 -2 13 -5z m325 -16 c-6 -6 -15 -8 -19 -4 -4 4 -1 11 7 16 19
12 27 3 12 -12z m618 7 c-11 -6 -17 -14 -14 -18 4 -4 5 -7 3 -7 -3 0 -11 8
-20 18 -14 17 -13 18 18 18 30 0 32 -1 13 -11z m-730 -4 c0 -5 -7 -12 -16 -15
-14 -5 -15 -4 -4 9 14 17 20 19 20 6z m70 -1 c0 -5 -4 -10 -10 -10 -5 0 -10 5
-10 10 0 6 5 10 10 10 6 0 10 -4 10 -10z m200 0 c0 -5 -4 -10 -10 -10 -5 0
-10 5 -10 10 0 6 5 10 10 10 6 0 10 -4 10 -10z m113 -15 c-7 -21 -12 -19 -10
4 0 11 5 18 9 15 4 -3 5 -11 1 -19z m-616 -7 c1 -10 -2 -18 -8 -18 -5 0 -9 7
-9 16 0 8 -4 13 -9 9 -5 -3 -12 -1 -16 5 -3 6 4 9 17 8 15 -1 25 -9 25 -20z
m460 16 c-3 -4 4 -15 16 -25 19 -17 19 -18 3 -12 -15 5 -18 3 -13 -10 3 -9 2
-17 -3 -17 -14 0 -21 18 -10 25 7 4 3 14 -11 26 l-22 19 23 0 c13 0 21 -3 17
-6z m83 -10 c0 -8 -5 -12 -10 -9 -6 4 -8 11 -5 16 9 14 15 11 15 -7z m340 7
c0 -5 -7 -12 -16 -15 -24 -9 -28 -7 -14 9 14 17 30 20 30 6z m-516 -35 c-8
-20 -20 -21 -27 -2 -4 10 -1 13 9 9 7 -3 14 1 14 8 0 7 2 10 5 7 3 -3 3 -13
-1 -22z m57 1 c-10 -9 -11 -8 -5 6 3 10 9 15 12 12 3 -3 0 -11 -7 -18z m-336
-16 c-6 -5 -25 10 -25 20 0 5 6 4 14 -3 8 -7 12 -15 11 -17z m435 19 c0 -5 -4
-10 -10 -10 -5 0 -10 5 -10 10 0 6 5 10 10 10 6 0 10 -4 10 -10z m260 -6 c0
-8 -4 -12 -10 -9 -5 3 -10 10 -10 16 0 5 5 9 10 9 6 0 10 -7 10 -16z m-662
-14 c-7 -10 -14 -18 -15 -16 -6 6 9 36 18 36 5 0 4 -9 -3 -20z m445 -6 c-3 -8
-12 -13 -19 -10 -8 3 -14 1 -14 -4 0 -6 -5 -10 -11 -10 -23 0 12 29 48 39 1 1
0 -6 -4 -15z m487 4 c0 -7 -5 -20 -10 -28 -9 -13 -11 -13 -19 -1 -5 8 -7 20
-4 28 6 17 33 17 33 1z m-254 -21 c4 -4 0 -7 -9 -7 -9 0 -18 4 -21 9 -7 10 20
9 30 -2z m-636 -1 c0 -3 -4 -8 -10 -11 -5 -3 -10 -1 -10 4 0 6 5 11 10 11 6 0
10 -2 10 -4z m296 -7 c3 -6 1 -16 -5 -22 -8 -8 -11 -6 -11 7 0 15 -3 16 -15 6
-12 -10 -15 -10 -15 4 0 18 35 22 46 5z m-82 -31 c7 -5 4 -8 -6 -8 -12 0 -18
7 -17 23 0 15 2 17 6 7 3 -8 11 -18 17 -22z m246 25 c0 -5 -4 -14 -9 -21 -7
-11 -9 -11 -14 1 -3 8 -3 18 0 21 9 8 23 7 23 -1z m735 -2 c3 -5 1 -12 -5 -16
-5 -3 -10 1 -10 9 0 18 6 21 15 7z m-1490 -11 c-3 -5 -12 -10 -18 -10 -7 0 -6
4 3 10 19 12 23 12 15 0z m795 1 c0 -6 -4 -13 -10 -16 -5 -3 -10 1 -10 9 0 9
5 16 10 16 6 0 10 -4 10 -9z m505 -61 c-7 -23 -31 -16 -38 11 -7 25 24 44 36
23 5 -8 5 -23 2 -34z m-617 34 c12 -4 22 -13 22 -21 0 -12 -3 -12 -16 2 -9 9
-23 14 -30 11 -8 -3 -14 -1 -14 4 0 11 6 12 38 4z m-233 -14 c3 -5 1 -10 -4
-10 -6 0 -11 5 -11 10 0 6 2 10 4 10 3 0 8 -4 11 -10z m125 0 c0 -5 -2 -10 -4
-10 -3 0 -8 5 -11 10 -3 6 -1 10 4 10 6 0 11 -4 11 -10z m158 -61 c-3 -8 -7
-3 -11 10 -4 17 -3 21 5 13 5 -5 8 -16 6 -23z m132 -44 c-10 -12 -16 -13 -26
-4 -19 16 -17 36 4 48 23 13 41 -21 22 -44z m-1887 10 c-3 -9 -8 -14 -10 -11
-3 3 -2 9 2 15 9 16 15 13 8 -4z m217 -1 c0 -8 -5 -12 -10 -9 -6 4 -8 11 -5
16 9 14 15 11 15 -7z m710 -12 c0 -5 -6 -16 -12 -25 -12 -16 -14 -16 -26 4 -8
12 -9 18 -3 14 6 -3 11 -1 11 4 0 6 7 11 15 11 8 0 15 -4 15 -8z m-3073 -27
c0 -17 -13 -20 -21 -6 -4 5 0 12 6 14 7 3 13 6 14 6 0 1 1 -6 1 -14z m3446
-10 c-3 -9 -8 -14 -10 -11 -3 3 -2 9 2 15 9 16 15 13 8 -4z m-6113 -9 c0 -17
-14 -29 -23 -20 -8 8 3 34 14 34 5 0 9 -6 9 -14z m7196 -203 c-11 -11 -19 6
-11 24 8 17 8 17 12 0 3 -10 2 -21 -1 -24z m-746 -163 c0 -11 -7 -20 -15 -20
-15 0 -21 21 -8 33 12 13 23 7 23 -13z m-1292 -103 c-4 -30 -28 -34 -28 -4 0
15 6 24 15 24 10 0 15 -8 13 -20z m-46 -142 c-6 -35 -28 -51 -47 -35 -32 27
-6 74 35 63 12 -3 16 -12 12 -28z m-1420 -97 c-15 -15 -26 -4 -18 18 5 13 9
15 18 6 9 -9 9 -15 0 -24z m956 -462 c4 -20 -16 -48 -29 -40 -11 6 -12 48 -2
58 11 10 28 1 31 -18z m-1768 -255 c0 -6 -4 -13 -10 -16 -5 -3 -10 1 -10 9 0
9 5 16 10 16 6 0 10 -4 10 -9z m612 -183 c-6 -6 -11 -2 -15 11 -3 12 -1 19 4
15 5 -3 10 1 10 8 1 7 3 5 6 -6 3 -10 1 -22 -5 -28z m-1438 -60 c-9 -15 -22
-8 -19 10 2 9 4 19 4 22 1 3 5 -2 10 -10 6 -8 7 -18 5 -22z m2133 -2 c-4 -9
-11 -16 -17 -16 -11 0 -14 33 -3 44 11 10 26 -11 20 -28z m-1257 -588 c0 -7
-4 -19 -9 -27 -11 -17 -25 3 -17 24 7 18 26 20 26 3z m483 -84 c-4 -10 -9 -12
-15 -6 -12 12 -1 35 12 27 5 -3 6 -13 3 -21z m-304 -291 c-14 -16 -29 -8 -29
16 0 27 13 34 27 15 9 -13 10 -21 2 -31z m225 -79 c3 -8 2 -12 -4 -9 -6 3 -10
10 -10 16 0 14 7 11 14 -7z m10236 -1065 c0 -10 -4 -19 -9 -19 -12 0 -23 29
-15 41 8 14 24 0 24 -22z m-777 -355 c-4 -12 -8 -13 -14 -3 -9 15 -2 32 11 24
5 -3 6 -13 3 -21z m567 -99 c6 4 7 -1 3 -12 -6 -16 -5 -16 10 -4 15 12 17 11
17 -3 0 -9 -5 -16 -12 -16 -6 0 -8 -3 -5 -6 4 -4 14 -1 24 7 15 12 16 12 10
-3 -3 -10 -2 -20 3 -23 6 -4 10 -2 10 3 0 14 29 10 34 -4 3 -9 -1 -11 -11 -7
-11 4 -14 3 -9 -6 4 -6 2 -19 -5 -28 -12 -13 -11 -15 6 -11 11 2 19 10 17 17
-3 16 20 9 26 -7 2 -7 -2 -11 -9 -10 -8 2 -18 -11 -23 -29 -11 -35 -32 -47
-23 -14 3 14 1 18 -9 14 -8 -3 -14 -10 -14 -15 0 -6 -7 -7 -16 -4 -12 4 -15 2
-11 -9 4 -8 1 -17 -5 -21 -6 -4 -8 -3 -4 4 3 6 2 13 -4 17 -5 3 -10 3 -10 -2
0 -4 -13 -8 -30 -8 -19 -1 -30 4 -30 13 0 7 5 10 12 6 6 -4 8 -3 4 4 -3 6 -15
10 -26 9 -13 -1 -16 -5 -9 -13 6 -8 5 -13 -4 -17 -8 -3 -14 0 -14 6 0 7 -4 21
-9 31 -5 13 -4 17 3 13 6 -4 14 0 17 9 4 12 2 15 -9 10 -8 -3 -15 -1 -15 4 0
6 -8 10 -18 10 -10 0 -19 7 -19 15 0 9 6 14 13 11 10 -4 11 0 2 19 -6 14 -15
25 -20 25 -4 0 -8 5 -8 11 0 8 4 8 14 0 16 -13 32 2 21 19 -3 6 -2 10 3 10 17
0 22 -28 6 -34 -8 -3 -14 -11 -14 -17 0 -8 7 -6 19 5 11 10 26 14 37 10 14 -4
16 -3 5 4 -12 8 -12 12 0 25 12 13 17 13 42 0 15 -7 32 -11 37 -8z m230 -133
c0 -18 -4 -23 -16 -18 -9 3 -18 6 -20 6 -2 0 -4 9 -4 19 0 14 6 19 20 18 14
-1 20 -8 20 -25z m-115 -22 c3 -5 2 -10 -4 -10 -5 0 -13 5 -16 10 -3 6 -2 10
4 10 5 0 13 -4 16 -10z"/>
<path d="M22009 22790 c-1 -8 -1 -18 0 -22 0 -5 -6 -8 -15 -8 -14 0 -14 -3 -4
-15 7 -8 16 -15 20 -15 14 0 20 29 10 52 -5 15 -9 18 -11 8z"/>
<path d="M21944 22735 c24 -18 39 -20 34 -2 -3 6 -15 13 -29 15 -23 2 -23 2
-5 -13z"/>
<path d="M21940 22711 c0 -4 -19 -7 -42 -6 -24 1 -49 0 -55 -2 -20 -8 -3 -24
18 -18 11 4 19 2 19 -4 0 -6 -11 -11 -25 -11 -25 0 -33 -14 -15 -25 6 -3 10
-1 10 5 0 7 7 9 16 6 16 -6 48 17 37 28 -4 3 -1 6 5 6 16 0 24 -17 12 -25 -18
-11 -11 -22 15 -22 14 0 25 3 25 8 0 5 -5 9 -11 9 -7 0 -9 11 -5 30 3 17 3 30
1 30 -3 0 -5 -4 -5 -9z"/>
<path d="M22105 22681 c-3 -5 4 -13 16 -16 28 -9 36 1 10 14 -12 7 -22 7 -26
2z"/>
<path d="M21695 22660 c-3 -5 -3 -10 2 -10 4 0 1 -5 -7 -10 -17 -11 -20 -32
-6 -42 16 -11 28 3 15 18 -10 12 -9 13 4 8 9 -3 24 -1 34 5 17 10 16 11 -4 17
-13 3 -20 10 -17 15 3 5 1 9 -5 9 -5 0 -13 -4 -16 -10z"/>
<path d="M22034 22642 c3 -6 -2 -13 -11 -15 -16 -4 -16 -5 -1 -6 21 -1 32 15
17 25 -7 4 -9 3 -5 -4z"/>
<path d="M22073 22635 c0 -8 4 -15 9 -15 4 0 8 -7 8 -17 0 -9 3 -14 6 -10 8 8
-4 57 -15 57 -4 0 -8 -7 -8 -15z"/>
<path d="M21870 22630 c-12 -8 -10 -10 8 -10 13 0 20 4 17 10 -7 12 -6 12 -25
0z"/>
<path d="M21925 22620 c-22 -9 -21 -10 13 -14 13 -2 22 3 22 11 0 15 -6 15
-35 3z"/>
<path d="M21984 22606 c12 -18 12 -26 3 -29 -9 -4 -9 -6 0 -6 6 -1 14 3 17 8
7 11 46 2 46 -11 0 -5 5 -6 10 -3 6 3 10 10 10 14 0 11 -50 32 -61 25 -5 -3
-12 2 -15 10 -3 9 -11 16 -16 16 -6 0 -3 -11 6 -24z"/>
<path d="M21816 22610 c32 -13 43 -34 13 -25 l-24 8 25 -26 c30 -31 34 -28 26
15 -5 28 -11 34 -34 35 -24 2 -25 1 -6 -7z"/>
<path d="M21526 22594 c-5 -12 -2 -15 10 -10 8 3 23 6 32 7 14 0 13 2 -3 9
-29 12 -32 12 -39 -6z"/>
<path d="M21717 22591 c-10 -11 -9 -13 3 -9 8 3 29 -1 47 -9 28 -11 32 -11 27
2 -4 8 -14 15 -23 15 -13 0 -13 2 -2 9 10 7 6 9 -13 8 -15 -1 -33 -8 -39 -16z"/>
<path d="M21658 22573 c6 -2 18 -2 25 0 6 3 1 5 -13 5 -14 0 -19 -2 -12 -5z"/>
<path d="M21730 22562 c0 -5 6 -15 14 -21 11 -9 15 -8 20 6 4 10 4 14 0 10 -4
-4 -13 -2 -21 4 -8 7 -13 8 -13 1z"/>
<path d="M22001 22561 c-10 -6 -10 -10 -1 -16 13 -8 24 -1 19 14 -3 6 -10 7
-18 2z"/>
<path d="M22089 22553 c-12 -14 -12 -17 0 -21 11 -4 11 -6 0 -14 -9 -5 -4 -6
15 -2 22 5 28 4 24 -7 -3 -8 -14 -15 -26 -17 -13 -2 -22 -10 -21 -20 0 -11 2
-12 6 -4 2 6 9 9 14 6 6 -4 6 -11 -1 -19 -8 -10 -5 -13 14 -11 13 0 22 4 19 9
-2 4 7 11 21 17 14 5 26 12 26 15 0 4 -6 3 -12 -1 -7 -4 -10 -3 -5 1 4 5 -1
17 -10 27 -13 14 -13 18 -2 13 8 -3 23 -17 33 -30 10 -14 28 -25 40 -25 21 1
21 1 1 12 -11 6 -27 20 -35 31 -9 11 -30 20 -50 21 -26 2 -35 6 -34 19 2 21 0
21 -17 0z m51 -73 c0 -5 -4 -10 -10 -10 -5 0 -10 5 -10 10 0 6 5 10 10 10 6 0
10 -4 10 -10z"/>
<path d="M21665 22551 c-33 -7 -34 -28 -1 -23 21 4 43 19 35 25 -2 2 -17 1
-34 -2z"/>
<path d="M21554 22514 c3 -9 6 -23 6 -32 1 -15 2 -15 11 1 12 20 44 24 36 3
-4 -9 3 -16 19 -19 20 -3 23 -1 19 14 -4 11 0 19 12 22 19 5 -27 11 -59 8 -9
-1 -19 3 -23 9 -10 16 -28 12 -21 -6z"/>
<path d="M22210 22515 c0 -8 4 -15 9 -15 5 0 11 7 15 15 3 9 0 15 -9 15 -8 0
-15 -7 -15 -15z"/>
<path d="M21760 22516 c0 -2 7 -9 15 -16 9 -7 15 -8 15 -2 0 5 -7 12 -15 16
-8 3 -15 4 -15 2z"/>
<path d="M22020 22489 c0 -5 5 -7 10 -4 6 3 10 8 10 11 0 2 -4 4 -10 4 -5 0
-10 -5 -10 -11z"/>
<path d="M22335 22480 c3 -5 8 -10 11 -10 2 0 4 5 4 10 0 6 -5 10 -11 10 -5 0
-7 -4 -4 -10z"/>
<path d="M21765 22460 c-3 -5 -2 -10 4 -10 5 0 13 5 16 10 3 6 2 10 -4 10 -5
0 -13 -4 -16 -10z"/>
<path d="M22159 22458 c-9 -32 -6 -36 24 -27 31 9 60 29 41 29 -5 0 -15 -5
-22 -12 -9 -9 -12 -9 -12 0 0 10 -28 18 -31 10z"/>
<path d="M21490 22440 c0 -18 31 -24 46 -8 12 12 10 14 -16 16 -16 1 -30 -2
-30 -8z"/>
<path d="M22363 22435 c0 -8 4 -15 9 -15 4 0 8 4 8 9 0 6 -4 12 -8 15 -5 3 -9
-1 -9 -9z"/>
<path d="M22397 22439 c7 -7 15 -10 18 -7 3 3 -2 9 -12 12 -14 6 -15 5 -6 -5z"/>
<path d="M21393 22423 c-20 -7 -15 -23 7 -23 11 0 20 4 20 9 0 13 -12 19 -27
14z"/>
<path d="M22298 22423 c7 -3 16 -2 19 1 4 3 -2 6 -13 5 -11 0 -14 -3 -6 -6z"/>
<path d="M22020 22410 c0 -5 5 -10 10 -10 6 0 10 5 10 10 0 6 -4 10 -10 10 -5
0 -10 -4 -10 -10z"/>
<path d="M22070 22409 c0 -5 5 -7 10 -4 6 3 10 1 10 -5 0 -6 5 -8 11 -4 8 4 7
9 -2 15 -19 12 -29 11 -29 -2z"/>
<path d="M22130 22410 c0 -5 5 -10 11 -10 5 0 7 5 4 10 -3 6 -8 10 -11 10 -2
0 -4 -4 -4 -10z"/>
<path d="M21433 22388 c-16 -20 -23 -48 -13 -48 5 0 11 9 15 19 4 13 12 18 23
15 10 -4 13 -2 7 3 -5 4 -13 12 -16 16 -3 4 -11 2 -16 -5z"/>
<path d="M22461 22384 c0 -11 3 -14 6 -6 3 7 2 16 -1 19 -3 4 -6 -2 -5 -13z"/>
<path d="M22579 22388 c-10 -6 -7 -7 10 -3 30 9 24 -15 -8 -31 -21 -11 -21
-12 -3 -16 12 -4 24 2 32 16 7 11 12 23 11 25 -2 2 3 7 9 11 7 5 2 8 -13 8
-14 0 -31 -5 -38 -10z"/>
<path d="M22391 22376 c-8 -10 -8 -16 3 -25 11 -10 14 -7 12 14 -1 29 0 29
-15 11z"/>
<path d="M22148 22373 c7 -3 16 -2 19 1 4 3 -2 6 -13 5 -11 0 -14 -3 -6 -6z"/>
<path d="M22355 22360 c-3 -5 -1 -10 4 -10 6 0 11 5 11 10 0 6 -2 10 -4 10 -3
0 -8 -4 -11 -10z"/>
<path d="M22491 22352 c-12 -23 -2 -35 18 -23 10 6 11 14 3 26 -9 17 -10 17
-21 -3z"/>
<path d="M22525 22350 c3 -5 11 -10 16 -10 6 0 7 5 4 10 -3 6 -11 10 -16 10
-6 0 -7 -4 -4 -10z"/>
<path d="M21300 22320 c0 -5 4 -10 9 -10 6 0 13 5 16 10 3 6 -1 10 -9 10 -9 0
-16 -4 -16 -10z"/>
<path d="M22410 22314 c0 -8 5 -12 10 -9 6 3 10 10 10 16 0 5 -4 9 -10 9 -5 0
-10 -7 -10 -16z"/>
<path d="M22628 22303 c5 -21 7 -23 10 -9 2 10 0 22 -6 28 -6 6 -7 0 -4 -19z"/>
<path d="M22460 22310 c0 -5 5 -10 10 -10 6 0 10 5 10 10 0 6 -4 10 -10 10 -5
0 -10 -4 -10 -10z"/>
<path d="M22551 22311 c-1 -9 -9 -11 -28 -7 -16 3 -22 3 -15 0 6 -3 12 -11 12
-19 0 -7 7 -18 15 -25 10 -9 15 -9 15 -1 0 6 -6 11 -12 11 -8 1 -5 6 6 15 10
7 16 20 13 27 -4 10 -6 10 -6 -1z"/>
<path d="M22594 22299 c-3 -6 -2 -15 3 -20 5 -5 9 -1 10 11 2 22 -2 25 -13 9z"/>
<path d="M22697 22304 c7 -3 9 -12 6 -21 -5 -13 -3 -14 18 -3 23 13 23 13 4
21 -11 4 -24 8 -30 8 -5 -1 -5 -3 2 -5z"/>
<path d="M21256 22255 c4 -8 10 -15 15 -15 4 0 6 7 3 15 -4 8 -10 15 -15 15
-4 0 -6 -7 -3 -15z"/>
<path d="M21124 22211 c0 -11 4 -17 8 -15 4 3 8 0 8 -5 0 -6 4 -11 9 -11 5 0
4 11 -2 25 -14 30 -23 32 -23 6z"/>
<path d="M21211 22213 c-18 -20 -6 -29 14 -10 8 9 12 18 8 20 -5 3 -14 -2 -22
-10z"/>
<path d="M21175 22200 c-3 -5 -1 -10 4 -10 6 0 11 5 11 10 0 6 -2 10 -4 10 -3
0 -8 -4 -11 -10z"/>
<path d="M22562 22187 c-7 -8 -7 -18 -2 -27 8 -12 10 -11 10 7 0 12 8 24 18
26 14 4 14 5 1 6 -9 0 -21 -5 -27 -12z"/>
<path d="M21070 22180 c0 -6 -6 -10 -12 -9 -27 3 -38 -1 -38 -15 0 -8 -8 -17
-17 -20 -10 -3 -1 -4 20 -1 20 2 37 0 37 -4 0 -12 63 -12 80 0 13 9 12 10 -3
5 -22 -7 -77 4 -77 15 0 5 7 9 15 9 17 0 20 16 5 25 -5 3 -10 1 -10 -5z"/>
<path d="M20962 22104 c-12 -9 -9 -10 17 -6 17 2 33 7 35 11 7 11 -35 7 -52
-5z"/>
<path d="M21033 22103 c4 -3 -5 -17 -19 -30 -28 -26 -20 -31 14 -7 23 16 30
44 10 44 -6 0 -8 -3 -5 -7z"/>
<path d="M21080 22070 c0 -6 7 -10 15 -10 8 0 15 2 15 4 0 2 -7 6 -15 10 -8 3
-15 1 -15 -4z"/>
<path d="M22672 22066 c7 -8 15 -12 17 -11 5 6 -10 25 -20 25 -5 0 -4 -6 3
-14z"/>
<path d="M22730 22051 c0 -6 5 -13 10 -16 6 -3 10 1 10 9 0 9 -4 16 -10 16 -5
0 -10 -4 -10 -9z"/>
<path d="M22765 22051 c-3 -5 -1 -12 4 -15 5 -3 11 1 15 9 6 16 -9 21 -19 6z"/>
<path d="M22691 22023 c-1 -12 4 -25 9 -28 12 -7 12 2 0 30 -8 19 -9 19 -9 -2z"/>
<path d="M20864 21982 c-6 -4 -8 -16 -4 -26 6 -18 7 -18 13 4 7 28 6 32 -9 22z"/>
<path d="M20886 21963 c-6 -14 -5 -15 5 -6 7 7 10 15 7 18 -3 3 -9 -2 -12 -12z"/>
<path d="M20945 21970 c-11 -5 -15 -9 -10 -9 6 -1 3 -5 -5 -11 -8 -5 -11 -12
-6 -17 4 -4 12 0 17 10 6 9 15 14 21 11 6 -4 8 -3 4 4 -3 5 0 13 6 15 7 3 9 5
3 6 -5 0 -19 -4 -30 -9z"/>
<path d="M22655 21940 c-3 -5 -1 -10 4 -10 6 0 11 5 11 10 0 6 -2 10 -4 10 -3
0 -8 -4 -11 -10z"/>
<path d="M20841 21924 c0 -11 3 -14 6 -6 3 7 2 16 -1 19 -3 4 -6 -2 -5 -13z"/>
<path d="M22711 21928 c0 -9 -4 -25 -7 -35 -5 -14 -4 -15 5 -7 7 7 11 22 8 35
-2 13 -5 16 -6 7z"/>
<path d="M22626 21913 c-6 -14 -5 -15 5 -6 7 7 10 15 7 18 -3 3 -9 -2 -12 -12z"/>
<path d="M20892 21894 c-1 -15 2 -22 8 -19 12 7 13 32 2 39 -4 2 -9 -7 -10
-20z"/>
<path d="M22670 21869 c0 -5 5 -7 10 -4 6 3 10 8 10 11 0 2 -4 4 -10 4 -5 0
-10 -5 -10 -11z"/>
<path d="M22726 21863 c-6 -14 -5 -15 5 -6 7 7 10 15 7 18 -3 3 -9 -2 -12 -12z"/>
<path d="M22760 21841 c0 -5 7 -11 14 -14 10 -4 13 -1 9 9 -6 15 -23 19 -23 5z"/>
<path d="M20721 21803 c-10 -26 -10 -27 4 -9 8 11 15 23 15 28 0 15 -7 8 -19
-19z"/>
<path d="M20775 21820 c-3 -5 -1 -10 4 -10 6 0 11 5 11 10 0 6 -2 10 -4 10 -3
0 -8 -4 -11 -10z"/>
<path d="M22710 21780 c0 -19 3 -21 12 -12 9 9 9 15 0 24 -9 9 -12 7 -12 -12z"/>
<path d="M22805 21790 c3 -5 8 -10 11 -10 2 0 4 5 4 10 0 6 -5 10 -11 10 -5 0
-7 -4 -4 -10z"/>
<path d="M22675 21780 c-3 -5 -1 -10 4 -10 6 0 11 5 11 10 0 6 -2 10 -4 10 -3
0 -8 -4 -11 -10z"/>
<path d="M20690 21770 c0 -5 5 -10 11 -10 5 0 7 5 4 10 -3 6 -8 10 -11 10 -2
0 -4 -4 -4 -10z"/>
<path d="M22793 21732 c-3 -12 -9 -22 -13 -22 -5 0 -6 -9 -3 -21 5 -18 8 -15
19 17 7 21 11 40 8 43 -3 3 -7 -5 -11 -17z"/>
<path d="M20700 21729 c0 -5 5 -7 10 -4 6 3 10 8 10 11 0 2 -4 4 -10 4 -5 0
-10 -5 -10 -11z"/>
<path d="M22710 21734 c0 -5 9 -17 20 -27 11 -9 20 -13 20 -8 0 4 -9 16 -20
26 -11 10 -20 14 -20 9z"/>
<path d="M20635 21690 c-3 -5 -1 -10 4 -10 6 0 11 5 11 10 0 6 -2 10 -4 10 -3
0 -8 -4 -11 -10z"/>
<path d="M20670 21661 c0 -5 7 -11 14 -14 10 -4 13 -1 9 9 -6 15 -23 19 -23 5z"/>
<path d="M20613 21653 c9 -2 23 -2 30 0 6 3 -1 5 -18 5 -16 0 -22 -2 -12 -5z"/>
<path d="M20430 21587 c0 -7 7 -22 15 -33 15 -18 15 -18 8 0 -5 14 -3 17 6 11
10 -6 11 -3 2 14 -13 23 -31 28 -31 8z"/>
<path d="M20490 21575 c-15 -18 16 -43 33 -26 9 10 9 12 -2 9 -7 -2 -16 3 -18
11 -4 9 0 11 15 7 11 -4 23 -3 26 2 9 14 -42 11 -54 -3z"/>
<path d="M22627 21577 c-3 -8 1 -14 9 -14 16 0 19 13 5 21 -5 3 -11 0 -14 -7z"/>
<path d="M20580 21561 c0 -6 5 -13 10 -16 6 -3 10 1 10 9 0 9 -4 16 -10 16 -5
0 -10 -4 -10 -9z"/>
<path d="M22753 21563 c-7 -3 -13 -9 -13 -15 0 -6 6 -6 15 2 9 7 15 8 15 2 0
-5 7 -12 15 -16 8 -3 15 -2 15 2 0 12 -34 29 -47 25z"/>
<path d="M20403 21523 c-23 -9 -14 -25 10 -18 14 4 18 3 9 -3 -14 -10 -6 -42
11 -42 5 0 2 -9 -8 -20 -10 -11 -16 -22 -13 -25 6 -6 38 39 38 52 0 5 -4 8 -9
8 -5 0 -13 4 -18 9 -5 5 -3 6 5 2 13 -8 16 3 6 28 -6 17 -11 18 -31 9z"/>
<path d="M20459 21504 c-7 -9 -4 -17 13 -28 18 -13 19 -16 5 -16 -9 0 -17 -4
-17 -10 0 -15 16 -12 30 5 10 12 9 16 -4 21 -20 8 -21 24 -1 24 8 0 15 4 15 8
0 13 -29 10 -41 -4z"/>
<path d="M20551 21504 c0 -11 3 -14 6 -6 3 7 2 16 -1 19 -3 4 -6 -2 -5 -13z"/>
<path d="M22580 21501 c0 -25 6 -27 13 -6 4 8 2 17 -3 20 -6 4 -10 -3 -10 -14z"/>
<path d="M22655 21510 c-18 -8 -17 -9 8 -9 15 -1 27 4 27 9 0 12 -8 12 -35 0z"/>
<path d="M22700 21490 c-7 -4 -19 -6 -27 -3 -9 3 -13 -3 -12 -18 0 -23 1 -23
9 -4 6 13 9 15 9 5 1 -12 3 -13 10 -1 5 7 13 11 19 7 6 -3 13 -2 16 3 9 14 -7
21 -24 11z"/>
<path d="M20500 21486 c0 -2 7 -6 15 -10 8 -3 15 -1 15 4 0 6 -7 10 -15 10 -8
0 -15 -2 -15 -4z"/>
<path d="M22661 21422 c-13 -24 1 -39 17 -19 6 7 7 18 3 26 -7 11 -11 9 -20
-7z"/>
<path d="M22811 21424 c0 -11 3 -14 6 -6 3 7 2 16 -1 19 -3 4 -6 -2 -5 -13z"/>
<path d="M20481 21419 c-1 -9 5 -19 12 -22 8 -3 14 1 14 9 0 7 -4 11 -8 8 -4
-2 -10 2 -12 8 -4 8 -6 7 -6 -3z"/>
<path d="M22627 21391 c-7 -33 1 -71 15 -71 5 0 6 5 2 12 -4 7 -7 29 -5 50 2
45 -4 50 -12 9z"/>
<path d="M22535 21400 c-3 -6 1 -7 9 -4 18 7 21 14 7 14 -6 0 -13 -4 -16 -10z"/>
<path d="M22584 21396 c-18 -10 -20 -14 -9 -29 6 -9 16 -13 20 -9 5 4 6 -1 2
-10 -3 -9 0 -19 9 -22 17 -7 17 -4 2 29 -9 21 -9 28 1 34 21 13 -2 19 -25 7z"/>
<path d="M22692 21394 c-7 -8 -8 -14 -3 -14 10 0 25 19 20 25 -2 1 -10 -3 -17
-11z"/>
<path d="M20456 21386 c10 -8 21 -12 24 -10 5 6 -21 24 -34 24 -6 0 -1 -6 10
-14z"/>
<path d="M20417 21379 c7 -7 15 -10 18 -7 3 3 -2 9 -12 12 -14 6 -15 5 -6 -5z"/>
<path d="M20405 21335 c3 -34 7 -36 29 -19 17 12 18 14 3 14 -9 0 -17 7 -17
15 0 8 -4 15 -9 15 -5 0 -8 -11 -6 -25z"/>
<path d="M22530 21302 c0 -12 19 -26 26 -19 2 2 -2 10 -11 17 -9 8 -15 8 -15
2z"/>
<path d="M22571 21294 c0 -11 3 -14 6 -6 3 7 2 16 -1 19 -3 4 -6 -2 -5 -13z"/>
<path d="M22695 21281 c-3 -5 -1 -12 5 -16 5 -3 10 1 10 9 0 18 -6 21 -15 7z"/>
<path d="M22485 21240 c-3 -5 -1 -10 4 -10 6 0 11 5 11 10 0 6 -2 10 -4 10 -3
0 -8 -4 -11 -10z"/>
<path d="M20320 21229 c0 -5 5 -7 10 -4 6 3 10 8 10 11 0 2 -4 4 -10 4 -5 0
-10 -5 -10 -11z"/>
<path d="M20350 21220 c0 -5 5 -10 10 -10 6 0 10 5 10 10 0 6 -4 10 -10 10 -5
0 -10 -4 -10 -10z"/>
<path d="M20380 21199 c-7 -11 -10 -23 -7 -25 2 -2 9 7 15 21 14 30 7 33 -8 4z"/>
<path d="M22475 21211 c-3 -5 -1 -12 5 -16 5 -3 10 1 10 9 0 18 -6 21 -15 7z"/>
<path d="M22406 21187 c3 -10 9 -15 12 -12 3 3 0 11 -7 18 -10 9 -11 8 -5 -6z"/>
<path d="M22451 21164 c0 -11 3 -14 6 -6 3 7 2 16 -1 19 -3 4 -6 -2 -5 -13z"/>
<path d="M20286 21155 c4 -8 10 -15 15 -15 4 0 6 7 3 15 -4 8 -10 15 -15 15
-4 0 -6 -7 -3 -15z"/>
<path d="M20300 21111 c0 -5 7 -12 16 -15 14 -5 15 -4 4 9 -14 17 -20 19 -20
6z"/>
<path d="M22395 21100 c3 -5 8 -10 11 -10 2 0 4 5 4 10 0 6 -5 10 -11 10 -5 0
-7 -4 -4 -10z"/>
<path d="M20184 21059 c-3 -5 -9 -7 -14 -4 -14 9 -23 -16 -11 -28 8 -8 11 -8
11 0 0 14 42 13 52 -1 5 -7 12 -6 20 3 10 10 10 12 1 7 -8 -4 -13 -1 -13 7 0
17 -37 30 -46 16z"/>
<path d="M22425 21030 c-3 -5 1 -10 9 -10 9 0 16 5 16 10 0 6 -4 10 -9 10 -6
0 -13 -4 -16 -10z"/>
<path d="M20186 21003 c-6 -14 -9 -15 -16 -4 -5 10 -8 6 -7 -12 1 -15 5 -27 8
-27 8 0 31 51 26 57 -3 2 -8 -4 -11 -14z"/>
<path d="M20194 20957 c2 -18 36 -64 36 -49 0 7 5 10 10 7 6 -4 9 3 7 16 -2
13 -10 25 -16 27 -9 3 -11 -2 -6 -18 6 -20 5 -21 -8 -9 -8 8 -12 20 -10 26 3
7 1 13 -5 13 -6 0 -9 -6 -8 -13z"/>
<path d="M20265 20940 c-3 -5 -1 -10 4 -10 6 0 11 5 11 10 0 6 -2 10 -4 10 -3
0 -8 -4 -11 -10z"/>
<path d="M20157 20923 c5 -12 3 -14 -7 -8 -10 6 -12 4 -7 -9 4 -10 7 -20 7
-22 0 -2 3 -4 8 -4 4 0 8 14 9 30 1 17 -2 30 -7 30 -5 0 -6 -7 -3 -17z"/>
<path d="M20127 20883 c-4 -3 -7 -15 -7 -25 0 -11 -4 -17 -8 -14 -4 2 -9 -4
-9 -15 -3 -29 23 -7 32 28 6 27 3 38 -8 26z"/>
<path d="M20047 20860 c-9 -34 -9 -42 2 -35 5 3 12 1 16 -5 4 -6 11 -7 17 -4
7 5 6 11 -4 18 -9 6 -17 20 -20 31 -3 18 -5 17 -11 -5z"/>
<path d="M22300 20869 c0 -5 5 -7 10 -4 6 3 10 8 10 11 0 2 -4 4 -10 4 -5 0
-10 -5 -10 -11z"/>
<path d="M22238 20834 c-17 -40 -18 -40 -29 -24 -9 13 -10 13 -6 -1 3 -9 0
-22 -6 -28 -8 -8 -6 -11 6 -11 10 0 20 6 23 14 3 8 15 17 27 21 19 6 20 8 4
12 -14 4 -16 8 -6 19 6 8 9 17 6 21 -4 3 -12 -7 -19 -23z"/>
<path d="M20141 20817 c2 -1 13 -9 24 -17 19 -14 19 -14 6 3 -7 9 -18 17 -24
17 -6 0 -8 -1 -6 -3z"/>
<path d="M20059 20794 c0 -5 -2 -17 -4 -27 -3 -15 -1 -16 13 -5 9 7 18 13 20
14 1 1 -4 7 -13 14 -8 7 -15 9 -16 4z"/>
<path d="M20100 20781 c0 -6 5 -13 10 -16 6 -3 10 1 10 9 0 9 -4 16 -10 16 -5
0 -10 -4 -10 -9z"/>
<path d="M19896 20644 c-22 -21 -20 -27 4 -12 11 7 20 16 20 20 0 12 -7 10
-24 -8z"/>
<path d="M20030 20650 c0 -6 7 -10 15 -10 8 0 15 2 15 4 0 2 -7 6 -15 10 -8 3
-15 1 -15 -4z"/>
<path d="M22030 20650 l-25 -8 28 -1 c15 -1 27 -5 27 -11 0 -5 4 -10 9 -10 6
0 9 9 8 20 -1 21 -8 23 -47 10z"/>
<path d="M20170 20616 c0 -2 7 -7 16 -10 8 -3 12 -2 9 4 -6 10 -25 14 -25 6z"/>
<path d="M22137 20596 c-4 -10 -1 -13 9 -9 15 6 19 23 5 23 -5 0 -11 -7 -14
-14z"/>
<path d="M20167 20579 c4 -13 8 -18 11 -10 2 7 -1 18 -6 23 -8 8 -9 4 -5 -13z"/>
<path d="M20063 20575 c-3 -9 -3 -19 1 -22 3 -4 6 1 6 10 0 8 10 18 23 20 l22
4 -23 2 c-12 0 -25 -6 -29 -14z"/>
<path d="M20195 20569 c-4 -6 -5 -12 -2 -15 2 -3 7 2 10 11 7 17 1 20 -8 4z"/>
<path d="M20138 20565 c-4 -4 -4 -13 -1 -21 4 -10 0 -12 -11 -8 -11 4 -19 -2
-26 -20 -5 -14 -14 -26 -19 -26 -5 0 -11 -7 -15 -15 -7 -20 -4 -19 24 5 12 11
28 17 34 13 6 -4 5 1 -3 10 -8 10 -11 20 -7 24 3 3 6 1 6 -6 0 -7 4 -10 9 -7
5 4 11 1 13 -6 3 -8 6 -8 9 3 7 18 -4 63 -13 54z"/>
<path d="M20170 20530 c0 -5 5 -10 11 -10 5 0 7 5 4 10 -3 6 -8 10 -11 10 -2
0 -4 -4 -4 -10z"/>
<path d="M21877 20514 c-21 -28 -11 -31 22 -5 17 13 20 19 10 23 -8 3 -22 -5
-32 -18z"/>
<path d="M20170 20490 c0 -5 5 -10 10 -10 6 0 10 5 10 10 0 6 -4 10 -10 10 -5
0 -10 -4 -10 -10z"/>
<path d="M20005 20480 c-3 -6 1 -7 9 -4 18 7 21 14 7 14 -6 0 -13 -4 -16 -10z"/>
<path d="M20157 20440 c-15 -20 -57 -24 -57 -4 0 16 -16 19 -25 4 -3 -5 -1
-10 5 -10 6 0 8 -5 4 -12 -4 -7 -3 -8 4 -4 7 4 12 2 12 -5 0 -6 8 -9 20 -6 15
4 20 0 20 -14 0 -15 -5 -17 -32 -12 l-31 6 21 -21 c25 -25 57 -30 49 -7 -4 8
-2 17 4 21 6 3 8 12 5 20 -3 8 1 14 9 14 8 0 15 7 15 15 0 8 5 15 10 15 6 0
10 -8 10 -17 0 -15 2 -15 9 -4 19 30 -30 51 -52 21z"/>
<path d="M20174 20389 c-4 -8 -3 -10 4 -5 15 9 54 -12 47 -25 -4 -5 -2 -9 4
-9 5 0 9 9 8 20 -1 11 -7 20 -13 20 -7 0 -19 3 -27 6 -8 3 -18 0 -23 -7z"/>
<path d="M21760 20390 c0 -5 5 -10 11 -10 5 0 7 5 4 10 -3 6 -8 10 -11 10 -2
0 -4 -4 -4 -10z"/>
<path d="M20175 20360 c-3 -6 1 -7 9 -4 18 7 21 14 7 14 -6 0 -13 -4 -16 -10z"/>
<path d="M20070 20350 c0 -6 7 -10 15 -10 8 0 15 2 15 4 0 2 -7 6 -15 10 -8 3
-15 1 -15 -4z"/>
<path d="M20280 20351 c0 -6 4 -13 10 -16 6 -3 7 1 4 9 -7 18 -14 21 -14 7z"/>
<path d="M20130 20314 c0 -10 -6 -14 -15 -10 -22 8 -18 -7 5 -21 14 -9 21 -10
26 -1 4 7 3 8 -4 4 -15 -9 -15 -1 -2 25 7 13 7 19 0 19 -5 0 -10 -7 -10 -16z"/>
<path d="M21693 20323 c-7 -2 -13 -9 -13 -15 0 -7 5 -7 13 1 8 6 18 7 22 3 5
-4 5 -1 1 6 -4 6 -8 12 -9 11 -1 0 -8 -3 -14 -6z"/>
<path d="M20197 20296 c-5 -11 -1 -16 13 -16 11 0 20 5 20 11 0 5 5 7 10 4 6
-4 8 -11 5 -16 -4 -5 -1 -9 4 -9 6 0 11 7 11 15 0 14 3 13 25 -1 14 -9 25 -12
25 -6 0 18 -77 35 -87 19 -3 -5 -9 -4 -13 3 -5 8 -9 7 -13 -4z"/>
<path d="M21600 20274 c17 -7 40 -34 40 -47 0 -4 -10 -5 -22 -1 -21 6 -21 6
-5 -10 15 -15 19 -15 31 -3 21 20 -1 61 -34 64 -14 1 -18 0 -10 -3z"/>
<path d="M20100 20236 c0 -8 5 -18 10 -21 6 -3 10 3 10 14 0 12 -4 21 -10 21
-5 0 -10 -6 -10 -14z"/>
<path d="M21570 20239 c0 -5 5 -7 10 -4 6 3 10 8 10 11 0 2 -4 4 -10 4 -5 0
-10 -5 -10 -11z"/>
<path d="M21695 20240 c-3 -5 1 -10 10 -10 9 0 13 5 10 10 -3 6 -8 10 -10 10
-2 0 -7 -4 -10 -10z"/>
<path d="M20221 20221 c-9 -6 -5 -8 13 -8 14 0 26 3 26 8 0 11 -21 11 -39 0z"/>
<path d="M20165 20211 c-3 -5 2 -11 10 -15 8 -3 17 -1 20 3 3 5 -2 11 -10 15
-8 3 -17 1 -20 -3z"/>
<path d="M20276 20201 c-3 -5 1 -11 9 -15 8 -3 15 -1 15 4 0 13 -18 22 -24 11z"/>
<path d="M21430 20202 c0 -5 7 -9 15 -9 8 0 15 4 15 9 0 4 -7 8 -15 8 -8 0
-15 -4 -15 -8z"/>
<path d="M21544 20203 c4 -8 2 -13 -6 -13 -10 0 -10 -2 1 -9 7 -5 11 -13 8
-18 -3 -5 3 -10 14 -10 16 -2 18 1 10 11 -6 7 -9 15 -6 18 3 3 -2 11 -12 19
-11 9 -14 10 -9 2z"/>
<path d="M21585 20190 c3 -5 10 -10 16 -10 5 0 9 5 9 10 0 6 -7 10 -16 10 -8
0 -12 -4 -9 -10z"/>
<path d="M20190 20180 c-8 -5 -12 -11 -10 -14 3 -2 14 2 24 10 22 15 10 19
-14 4z"/>
<path d="M20227 20172 c-16 -17 -15 -18 16 -18 31 0 32 1 18 18 -9 10 -16 18
-17 18 0 0 -8 -8 -17 -18z"/>
<path d="M20330 20148 c-12 -22 -12 -22 6 -6 10 10 15 20 12 24 -4 3 -12 -5
-18 -18z"/>
<path d="M20296 20145 c4 -8 8 -15 10 -15 2 0 4 7 4 15 0 8 -4 15 -10 15 -5 0
-7 -7 -4 -15z"/>
<path d="M21325 20150 c3 -5 11 -10 16 -10 6 0 7 5 4 10 -3 6 -11 10 -16 10
-6 0 -7 -4 -4 -10z"/>
<path d="M21454 20151 c4 -5 0 -12 -6 -14 -7 -3 -4 -6 8 -6 12 -1 21 5 21 14
0 8 -7 15 -14 15 -8 0 -12 -4 -9 -9z"/>
<path d="M21395 20142 c-13 -9 -19 -35 -6 -28 5 4 11 3 14 -1 2 -5 2 -2 0 6
-2 8 2 18 9 23 7 4 9 8 3 8 -5 0 -14 -4 -20 -8z"/>
<path d="M21490 20146 c0 -2 9 -6 20 -9 11 -3 18 -1 14 4 -5 9 -34 13 -34 5z"/>
<path d="M20243 20125 c0 -8 7 -15 15 -15 12 0 12 3 2 15 -7 8 -13 15 -15 15
-1 0 -2 -7 -2 -15z"/>
<path d="M20351 20130 c-1 -22 15 -44 28 -36 16 10 14 26 -3 20 -8 -3 -16 2
-19 13 -3 12 -5 13 -6 3z"/>
<path d="M20195 20100 c3 -5 8 -10 11 -10 2 0 4 5 4 10 0 6 -5 10 -11 10 -5 0
-7 -4 -4 -10z"/>
<path d="M21340 20096 c0 -2 7 -7 16 -10 8 -3 12 -2 9 4 -6 10 -25 14 -25 6z"/>
<path d="M21296 20074 c-8 -21 -8 -24 4 -24 6 0 10 6 10 14 0 8 6 17 13 19 7
4 6 6 -4 6 -9 1 -20 -6 -23 -15z"/>
<path d="M20366 20070 c-16 -5 -17 -8 -6 -15 9 -5 15 -4 18 4 3 9 7 9 18 0 8
-7 14 -7 14 -1 0 14 -22 20 -44 12z"/>
<path d="M20616 20055 c-3 -8 -1 -15 4 -15 6 0 10 7 10 15 0 8 -2 15 -4 15 -2
0 -6 -7 -10 -15z"/>
<path d="M21250 20060 c-9 -6 -10 -10 -3 -10 6 0 15 5 18 10 8 12 4 12 -15 0z"/>
<path d="M20725 20039 c-4 -6 -5 -12 -2 -15 2 -3 7 2 10 11 7 17 1 20 -8 4z"/>
<path d="M21222 20035 c3 -16 12 -20 51 -21 38 -1 45 1 36 12 -6 7 -18 10 -26
7 -11 -5 -14 -3 -8 6 6 10 3 11 -12 2 -15 -7 -23 -7 -32 2 -10 9 -12 8 -9 -8z"/>
<path d="M21368 20043 c7 -3 16 -2 19 1 4 3 -2 6 -13 5 -11 0 -14 -3 -6 -6z"/>
<path d="M20685 20020 c3 -5 8 -10 11 -10 2 0 4 5 4 10 0 6 -5 10 -11 10 -5 0
-7 -4 -4 -10z"/>
<path d="M20936 19995 c-9 -26 -7 -32 5 -12 6 10 9 21 6 23 -2 3 -7 -2 -11
-11z"/>
<path d="M20965 20000 c3 -5 8 -10 11 -10 2 0 4 5 4 10 0 6 -5 10 -11 10 -5 0
-7 -4 -4 -10z"/>
<path d="M21180 20001 c0 -6 5 -13 10 -16 6 -3 10 1 10 9 0 9 -4 16 -10 16 -5
0 -10 -4 -10 -9z"/>
<path d="M21247 19979 c18 -11 40 -18 50 -16 15 4 14 5 -3 6 -12 0 -27 8 -34
16 -7 8 -20 15 -29 15 -10 0 -4 -8 16 -21z"/>
<path d="M20880 19981 c0 -6 4 -13 10 -16 6 -3 7 1 4 9 -7 18 -14 21 -14 7z"/>
<path d="M21035 19980 c-3 -5 -1 -10 4 -10 6 0 11 5 11 10 0 6 -2 10 -4 10 -3
0 -8 -4 -11 -10z"/>
<path d="M20416 19964 c-3 -8 1 -14 9 -14 7 0 16 -9 20 -19 5 -17 32 -31 62
-31 7 0 10 7 7 15 -4 9 -19 15 -36 15 -25 0 -29 3 -25 19 6 23 -29 37 -37 15z"/>
<path d="M20476 19966 c3 -9 11 -16 16 -16 13 0 5 23 -10 28 -7 2 -10 -2 -6
-12z"/>
<path d="M20520 19970 c0 -5 5 -10 10 -10 6 0 10 5 10 10 0 6 -4 10 -10 10 -5
0 -10 -4 -10 -10z"/>
<path d="M20563 19964 c0 -16 13 -19 21 -5 3 5 0 11 -7 14 -8 3 -14 -1 -14 -9z"/>
<path d="M20635 19960 c-3 -5 -1 -10 4 -10 6 0 11 5 11 10 0 6 -2 10 -4 10 -3
0 -8 -4 -11 -10z"/>
<path d="M20771 19924 c0 -11 3 -14 6 -6 3 7 2 16 -1 19 -3 4 -6 -2 -5 -13z"/>
<path d="M20694 19905 c-10 -8 -14 -15 -8 -15 6 0 17 7 24 15 16 19 9 19 -16
0z"/>
<path d="M20952 19905 c-11 -12 -10 -15 3 -15 8 0 15 -7 15 -16 0 -8 4 -13 9
-10 5 4 8 14 6 24 -2 9 -4 20 -4 25 -1 11 -15 8 -29 -8z"/>
<path d="M21095 19900 c-3 -5 -1 -10 4 -10 6 0 11 5 11 10 0 6 -2 10 -4 10 -3
0 -8 -4 -11 -10z"/>
<path d="M20555 19885 c-3 -8 -7 -22 -10 -30 -2 -8 -1 -15 4 -15 5 0 11 14 13
30 5 32 1 40 -7 15z"/>
<path d="M20510 19880 c12 -10 11 -11 -8 -7 -12 3 -20 1 -16 -4 8 -13 46 -11
42 3 -2 6 -11 13 -19 16 -11 3 -11 1 1 -8z"/>
<path d="M20730 19884 c0 -7 27 -34 34 -34 4 0 1 9 -6 20 -12 19 -28 27 -28
14z"/>
<path d="M20640 19869 c0 -5 5 -7 10 -4 6 3 10 8 10 11 0 2 -4 4 -10 4 -5 0
-10 -5 -10 -11z"/>
<path d="M20794 19872 c-9 -5 -8 -11 2 -20 12 -11 14 -9 14 8 0 22 0 23 -16
12z"/>
<path d="M20820 19835 c-11 -13 -10 -14 4 -9 9 3 16 10 16 15 0 13 -6 11 -20
-6z"/>
<path d="M20484 19824 c-18 -14 -18 -14 6 -3 31 14 36 19 24 19 -6 0 -19 -7
-30 -16z"/>
<path d="M20675 19824 c39 -17 55 -17 55 -1 0 7 -15 12 -42 13 l-42 0 29 -12z"/>
<path d="M20480 19795 c-7 -8 -8 -15 -2 -15 5 0 15 7 22 15 7 8 8 15 2 15 -5
0 -15 -7 -22 -15z"/>
<path d="M20621 19794 c13 -15 34 -19 25 -5 -4 5 0 11 6 14 7 2 1 4 -15 4 -22
0 -25 -2 -16 -13z"/>
<path d="M20815 19800 c3 -5 8 -10 11 -10 2 0 4 5 4 10 0 6 -5 10 -11 10 -5 0
-7 -4 -4 -10z"/>
<path d="M21210 22310 c0 -5 5 -10 10 -10 6 0 10 5 10 10 0 6 -4 10 -10 10 -5
0 -10 -4 -10 -10z"/>
<path d="M19800 20431 c0 -6 4 -13 10 -16 6 -3 7 1 4 9 -7 18 -14 21 -14 7z"/>
<path d="M20010 20370 c0 -5 -5 -9 -11 -7 -14 3 -21 -31 -8 -39 5 -3 9 0 9 7
0 7 7 21 17 31 9 11 11 18 5 18 -7 0 -12 -4 -12 -10z"/>
<path d="M20725 19710 c-3 -5 -1 -10 4 -10 6 0 11 5 11 10 0 6 -2 10 -4 10 -3
0 -8 -4 -11 -10z"/>
</g>
</svg>
